G04 #@! TF.FileFunction,Copper,L2,Bot,Signal*
%FSLAX46Y46*%
G04 Gerber Fmt 4.6, Leading zero omitted, Abs format (unit mm)*
G04 Created by KiCad (PCBNEW 4.0.6-e0-6349~53~ubuntu16.04.1) date Sat Apr 29 18:22:20 2017*
%MOMM*%
%LPD*%
G01*
G04 APERTURE LIST*
%ADD10C,0.100000*%
%ADD11R,1.600000X1.600000*%
%ADD12C,1.600000*%
%ADD13R,1.700000X1.700000*%
%ADD14O,1.700000X1.700000*%
%ADD15C,3.650000*%
%ADD16R,1.500000X1.500000*%
%ADD17C,1.500000*%
%ADD18C,1.824000*%
%ADD19C,0.600000*%
%ADD20C,0.800000*%
%ADD21C,1.000000*%
%ADD22C,0.250000*%
%ADD23C,0.600000*%
%ADD24C,0.254000*%
G04 APERTURE END LIST*
D10*
D11*
X89154000Y-116046000D03*
D12*
X89154000Y-114046000D03*
D13*
X88900000Y-121920000D03*
D14*
X91440000Y-121920000D03*
X93980000Y-121920000D03*
X96520000Y-121920000D03*
X99060000Y-121920000D03*
D13*
X55880000Y-107950000D03*
D14*
X58420000Y-107950000D03*
X60960000Y-107950000D03*
X63500000Y-107950000D03*
X66040000Y-107950000D03*
X68580000Y-107950000D03*
X71120000Y-107950000D03*
X73660000Y-107950000D03*
X76200000Y-107950000D03*
X78740000Y-107950000D03*
X81280000Y-107950000D03*
X83820000Y-107950000D03*
X86360000Y-107950000D03*
X88900000Y-107950000D03*
D13*
X86360000Y-88900000D03*
D14*
X88900000Y-88900000D03*
X91440000Y-88900000D03*
X93980000Y-88900000D03*
X96520000Y-88900000D03*
D11*
X83058000Y-116046000D03*
D12*
X83058000Y-114046000D03*
D13*
X93980000Y-112953800D03*
D14*
X93980000Y-115493800D03*
D13*
X101600000Y-112953800D03*
D14*
X101600000Y-115493800D03*
X99060000Y-112953800D03*
X99060000Y-115493800D03*
D13*
X88900000Y-92710000D03*
D14*
X86360000Y-92710000D03*
X83820000Y-92710000D03*
X81280000Y-92710000D03*
X78740000Y-92710000D03*
X76200000Y-92710000D03*
X73660000Y-92710000D03*
X71120000Y-92710000D03*
X68580000Y-92710000D03*
X66040000Y-92710000D03*
X63500000Y-92710000D03*
X60960000Y-92710000D03*
X58420000Y-92710000D03*
X55880000Y-92710000D03*
D15*
X106680000Y-119380000D03*
X118550000Y-119380000D03*
D16*
X117060000Y-113030000D03*
D17*
X115790000Y-110490000D03*
X114520000Y-113030000D03*
X113250000Y-110490000D03*
X111980000Y-113030000D03*
X110710000Y-110490000D03*
X109440000Y-113030000D03*
X108170000Y-110490000D03*
D13*
X139700000Y-114300000D03*
D14*
X139700000Y-111760000D03*
D15*
X124460000Y-119380000D03*
X136330000Y-119380000D03*
D16*
X134840000Y-113030000D03*
D17*
X133570000Y-110490000D03*
X132300000Y-113030000D03*
X131030000Y-110490000D03*
X129760000Y-113030000D03*
X128490000Y-110490000D03*
X127220000Y-113030000D03*
X125950000Y-110490000D03*
D13*
X134620000Y-106680000D03*
D14*
X137160000Y-106680000D03*
D15*
X136330000Y-91440000D03*
X124460000Y-91440000D03*
D16*
X125950000Y-97790000D03*
D17*
X127220000Y-100330000D03*
X128490000Y-97790000D03*
X129760000Y-100330000D03*
X131030000Y-97790000D03*
X132300000Y-100330000D03*
X133570000Y-97790000D03*
X134840000Y-100330000D03*
D13*
X100838000Y-88900000D03*
D14*
X103378000Y-88900000D03*
D13*
X134620000Y-104140000D03*
D14*
X137160000Y-104140000D03*
D15*
X118550000Y-91440000D03*
X106680000Y-91440000D03*
D16*
X108170000Y-97790000D03*
D17*
X109440000Y-100330000D03*
X110710000Y-97790000D03*
X111980000Y-100330000D03*
X113250000Y-97790000D03*
X114520000Y-100330000D03*
X115790000Y-97790000D03*
X117060000Y-100330000D03*
D13*
X139700000Y-96520000D03*
D14*
X139700000Y-99060000D03*
D18*
X58674000Y-113110000D03*
X58674000Y-118110000D03*
D19*
X102542600Y-100657400D03*
X104902000Y-101600000D03*
X103378000Y-111760000D03*
X97028000Y-111760000D03*
X96291400Y-110286800D03*
X78232000Y-112242600D03*
X76694000Y-112166000D03*
X90805000Y-101168200D03*
X93141800Y-100152200D03*
X101667000Y-93264900D03*
X94107000Y-93204900D03*
X100711000Y-100609400D03*
X95329000Y-100657400D03*
X90170000Y-97028000D03*
X92294600Y-95088600D03*
X83058000Y-102362000D03*
X85598000Y-105156000D03*
X83820000Y-110490000D03*
X96989997Y-101092000D03*
X96989997Y-103378000D03*
X98690003Y-99937997D03*
X98690003Y-103378000D03*
X97790000Y-99822000D03*
X97790000Y-103378000D03*
D20*
X87630000Y-106934000D03*
X86861937Y-99815937D03*
X86868000Y-94742000D03*
D19*
X92202000Y-106934000D03*
X92202000Y-105410000D03*
X86360000Y-104394000D03*
X84328000Y-100076000D03*
X87884000Y-103124000D03*
X85598000Y-100838000D03*
X87122000Y-103886000D03*
X84836000Y-101600000D03*
D20*
X112014000Y-116078000D03*
X115570000Y-94996000D03*
D21*
X83058000Y-116046000D02*
X89154000Y-116046000D01*
D22*
X90355200Y-97028000D02*
X90170000Y-97028000D01*
X92294600Y-95088600D02*
X90355200Y-97028000D01*
X83228264Y-102362000D02*
X83058000Y-102362000D01*
X83566000Y-102699736D02*
X83228264Y-102362000D01*
X85598000Y-105156000D02*
X85598000Y-104731736D01*
X85598000Y-104731736D02*
X83566000Y-102699736D01*
X83820000Y-107950000D02*
X83820000Y-110490000D01*
X96989997Y-101130003D02*
X96989997Y-101092000D01*
X96989997Y-103378000D02*
X96989997Y-101130003D01*
X98690003Y-101207997D02*
X98690003Y-99937997D01*
X98690003Y-103378000D02*
X98690003Y-101207997D01*
X97790000Y-101092000D02*
X97790000Y-99822000D01*
X97790000Y-103378000D02*
X97790000Y-101092000D01*
X87630000Y-104303002D02*
X87630000Y-106934000D01*
X88509001Y-103424001D02*
X87630000Y-104303002D01*
X86861937Y-101085937D02*
X88509001Y-102733001D01*
X88509001Y-102733001D02*
X88509001Y-103424001D01*
X86861937Y-99815937D02*
X86861937Y-101085937D01*
X87884000Y-93726000D02*
X86868000Y-94742000D01*
X88900000Y-92710000D02*
X87884000Y-93726000D01*
X83820000Y-92710000D02*
X83820000Y-90340000D01*
X85260000Y-88900000D02*
X86360000Y-88900000D01*
X83820000Y-90340000D02*
X85260000Y-88900000D01*
X92202000Y-105834264D02*
X92202000Y-106934000D01*
X92202000Y-105410000D02*
X92202000Y-105834264D01*
X84028001Y-102062001D02*
X86360000Y-104394000D01*
X84328000Y-100076000D02*
X84028001Y-100375999D01*
X84028001Y-100375999D02*
X84028001Y-102062001D01*
X85897999Y-101137999D02*
X87884000Y-103124000D01*
X85598000Y-100838000D02*
X85897999Y-101137999D01*
X84836000Y-101600000D02*
X87122000Y-103886000D01*
D23*
X112014000Y-114124660D02*
X112014000Y-116078000D01*
X111980000Y-113030000D02*
X111980000Y-114090660D01*
X111980000Y-114090660D02*
X112014000Y-114124660D01*
X131030000Y-97790000D02*
X131030000Y-99060000D01*
X131030000Y-99060000D02*
X129760000Y-100330000D01*
X129760000Y-100330000D02*
X129760000Y-101390660D01*
X129760000Y-101390660D02*
X132509340Y-104140000D01*
X132509340Y-104140000D02*
X133170000Y-104140000D01*
X133170000Y-104140000D02*
X134620000Y-104140000D01*
X113999999Y-96566001D02*
X115570000Y-94996000D01*
X113250000Y-97790000D02*
X113999999Y-97040001D01*
X113999999Y-97040001D02*
X113999999Y-96566001D01*
D24*
G36*
X143054000Y-125274000D02*
X53034000Y-125274000D01*
X53034000Y-123376143D01*
X53149115Y-123376143D01*
X53486758Y-124193300D01*
X54111411Y-124819045D01*
X54927978Y-125158113D01*
X55812143Y-125158885D01*
X56629300Y-124821242D01*
X57255045Y-124196589D01*
X57594113Y-123380022D01*
X57594885Y-122495857D01*
X57257242Y-121678700D01*
X56649605Y-121070000D01*
X87402560Y-121070000D01*
X87402560Y-122770000D01*
X87446838Y-123005317D01*
X87585910Y-123221441D01*
X87798110Y-123366431D01*
X88050000Y-123417440D01*
X89750000Y-123417440D01*
X89985317Y-123373162D01*
X90201441Y-123234090D01*
X90346431Y-123021890D01*
X90360086Y-122954459D01*
X90389946Y-122999147D01*
X90871715Y-123321054D01*
X91440000Y-123434093D01*
X92008285Y-123321054D01*
X92490054Y-122999147D01*
X92710000Y-122669974D01*
X92929946Y-122999147D01*
X93411715Y-123321054D01*
X93980000Y-123434093D01*
X94548285Y-123321054D01*
X95030054Y-122999147D01*
X95257702Y-122658447D01*
X95324817Y-122801358D01*
X95753076Y-123191645D01*
X96163110Y-123361476D01*
X96393000Y-123240155D01*
X96393000Y-122047000D01*
X96373000Y-122047000D01*
X96373000Y-121793000D01*
X96393000Y-121793000D01*
X96393000Y-120599845D01*
X96647000Y-120599845D01*
X96647000Y-121793000D01*
X96667000Y-121793000D01*
X96667000Y-122047000D01*
X96647000Y-122047000D01*
X96647000Y-123240155D01*
X96876890Y-123361476D01*
X97286924Y-123191645D01*
X97715183Y-122801358D01*
X97782298Y-122658447D01*
X98009946Y-122999147D01*
X98491715Y-123321054D01*
X99060000Y-123434093D01*
X99351334Y-123376143D01*
X138493115Y-123376143D01*
X138830758Y-124193300D01*
X139455411Y-124819045D01*
X140271978Y-125158113D01*
X141156143Y-125158885D01*
X141973300Y-124821242D01*
X142599045Y-124196589D01*
X142938113Y-123380022D01*
X142938885Y-122495857D01*
X142601242Y-121678700D01*
X141976589Y-121052955D01*
X141160022Y-120713887D01*
X140275857Y-120713115D01*
X139458700Y-121050758D01*
X138832955Y-121675411D01*
X138493887Y-122491978D01*
X138493115Y-123376143D01*
X99351334Y-123376143D01*
X99628285Y-123321054D01*
X100110054Y-122999147D01*
X100431961Y-122517378D01*
X100545000Y-121949093D01*
X100545000Y-121890907D01*
X100431961Y-121322622D01*
X100110054Y-120840853D01*
X99628285Y-120518946D01*
X99060000Y-120405907D01*
X98491715Y-120518946D01*
X98009946Y-120840853D01*
X97782298Y-121181553D01*
X97715183Y-121038642D01*
X97286924Y-120648355D01*
X96876890Y-120478524D01*
X96647000Y-120599845D01*
X96393000Y-120599845D01*
X96163110Y-120478524D01*
X95753076Y-120648355D01*
X95324817Y-121038642D01*
X95257702Y-121181553D01*
X95030054Y-120840853D01*
X94548285Y-120518946D01*
X93980000Y-120405907D01*
X93411715Y-120518946D01*
X92929946Y-120840853D01*
X92710000Y-121170026D01*
X92490054Y-120840853D01*
X92008285Y-120518946D01*
X91440000Y-120405907D01*
X90871715Y-120518946D01*
X90389946Y-120840853D01*
X90362150Y-120882452D01*
X90353162Y-120834683D01*
X90214090Y-120618559D01*
X90001890Y-120473569D01*
X89750000Y-120422560D01*
X88050000Y-120422560D01*
X87814683Y-120466838D01*
X87598559Y-120605910D01*
X87453569Y-120818110D01*
X87402560Y-121070000D01*
X56649605Y-121070000D01*
X56632589Y-121052955D01*
X55816022Y-120713887D01*
X54931857Y-120713115D01*
X54114700Y-121050758D01*
X53488955Y-121675411D01*
X53149887Y-122491978D01*
X53149115Y-123376143D01*
X53034000Y-123376143D01*
X53034000Y-119867177D01*
X104219574Y-119867177D01*
X104593298Y-120771657D01*
X105284703Y-121464270D01*
X106188529Y-121839572D01*
X107167177Y-121840426D01*
X108071657Y-121466702D01*
X108764270Y-120775297D01*
X109139572Y-119871471D01*
X109139575Y-119867177D01*
X116089574Y-119867177D01*
X116463298Y-120771657D01*
X117154703Y-121464270D01*
X118058529Y-121839572D01*
X119037177Y-121840426D01*
X119941657Y-121466702D01*
X120634270Y-120775297D01*
X121009572Y-119871471D01*
X121009575Y-119867177D01*
X121999574Y-119867177D01*
X122373298Y-120771657D01*
X123064703Y-121464270D01*
X123968529Y-121839572D01*
X124947177Y-121840426D01*
X125851657Y-121466702D01*
X126544270Y-120775297D01*
X126919572Y-119871471D01*
X126919575Y-119867177D01*
X133869574Y-119867177D01*
X134243298Y-120771657D01*
X134934703Y-121464270D01*
X135838529Y-121839572D01*
X136817177Y-121840426D01*
X137721657Y-121466702D01*
X138414270Y-120775297D01*
X138789572Y-119871471D01*
X138790426Y-118892823D01*
X138416702Y-117988343D01*
X137725297Y-117295730D01*
X136821471Y-116920428D01*
X135842823Y-116919574D01*
X134938343Y-117293298D01*
X134245730Y-117984703D01*
X133870428Y-118888529D01*
X133869574Y-119867177D01*
X126919575Y-119867177D01*
X126920426Y-118892823D01*
X126546702Y-117988343D01*
X125855297Y-117295730D01*
X124951471Y-116920428D01*
X123972823Y-116919574D01*
X123068343Y-117293298D01*
X122375730Y-117984703D01*
X122000428Y-118888529D01*
X121999574Y-119867177D01*
X121009575Y-119867177D01*
X121010426Y-118892823D01*
X120636702Y-117988343D01*
X119945297Y-117295730D01*
X119041471Y-116920428D01*
X118062823Y-116919574D01*
X117158343Y-117293298D01*
X116465730Y-117984703D01*
X116090428Y-118888529D01*
X116089574Y-119867177D01*
X109139575Y-119867177D01*
X109140426Y-118892823D01*
X108766702Y-117988343D01*
X108075297Y-117295730D01*
X107171471Y-116920428D01*
X106192823Y-116919574D01*
X105288343Y-117293298D01*
X104595730Y-117984703D01*
X104220428Y-118888529D01*
X104219574Y-119867177D01*
X53034000Y-119867177D01*
X53034000Y-119198847D01*
X57764758Y-119198847D01*
X57852637Y-119456575D01*
X58430471Y-119668395D01*
X59045380Y-119642964D01*
X59495363Y-119456575D01*
X59583242Y-119198847D01*
X58674000Y-118289605D01*
X57764758Y-119198847D01*
X53034000Y-119198847D01*
X53034000Y-117866471D01*
X57115605Y-117866471D01*
X57141036Y-118481380D01*
X57327425Y-118931363D01*
X57585153Y-119019242D01*
X58494395Y-118110000D01*
X58853605Y-118110000D01*
X59762847Y-119019242D01*
X60020575Y-118931363D01*
X60232395Y-118353529D01*
X60206964Y-117738620D01*
X60020575Y-117288637D01*
X59762847Y-117200758D01*
X58853605Y-118110000D01*
X58494395Y-118110000D01*
X57585153Y-117200758D01*
X57327425Y-117288637D01*
X57115605Y-117866471D01*
X53034000Y-117866471D01*
X53034000Y-117021153D01*
X57764758Y-117021153D01*
X58674000Y-117930395D01*
X59583242Y-117021153D01*
X59495363Y-116763425D01*
X58917529Y-116551605D01*
X58302620Y-116577036D01*
X57852637Y-116763425D01*
X57764758Y-117021153D01*
X53034000Y-117021153D01*
X53034000Y-115246000D01*
X81610560Y-115246000D01*
X81610560Y-116846000D01*
X81654838Y-117081317D01*
X81793910Y-117297441D01*
X82006110Y-117442431D01*
X82258000Y-117493440D01*
X83858000Y-117493440D01*
X84093317Y-117449162D01*
X84309441Y-117310090D01*
X84397644Y-117181000D01*
X87814982Y-117181000D01*
X87889910Y-117297441D01*
X88102110Y-117442431D01*
X88354000Y-117493440D01*
X89954000Y-117493440D01*
X90189317Y-117449162D01*
X90405441Y-117310090D01*
X90550431Y-117097890D01*
X90601440Y-116846000D01*
X90601440Y-115493800D01*
X92465907Y-115493800D01*
X92578946Y-116062085D01*
X92900853Y-116543854D01*
X93382622Y-116865761D01*
X93950907Y-116978800D01*
X94009093Y-116978800D01*
X94577378Y-116865761D01*
X95059147Y-116543854D01*
X95381054Y-116062085D01*
X95494093Y-115493800D01*
X95381054Y-114925515D01*
X95059147Y-114443746D01*
X95017548Y-114415950D01*
X95065317Y-114406962D01*
X95281441Y-114267890D01*
X95426431Y-114055690D01*
X95477440Y-113803800D01*
X95477440Y-112924707D01*
X97575000Y-112924707D01*
X97575000Y-112982893D01*
X97688039Y-113551178D01*
X98009946Y-114032947D01*
X98295578Y-114223800D01*
X98009946Y-114414653D01*
X97688039Y-114896422D01*
X97575000Y-115464707D01*
X97575000Y-115522893D01*
X97688039Y-116091178D01*
X98009946Y-116572947D01*
X98491715Y-116894854D01*
X99060000Y-117007893D01*
X99628285Y-116894854D01*
X100110054Y-116572947D01*
X100330000Y-116243774D01*
X100549946Y-116572947D01*
X101031715Y-116894854D01*
X101600000Y-117007893D01*
X102168285Y-116894854D01*
X102650054Y-116572947D01*
X102971961Y-116091178D01*
X103085000Y-115522893D01*
X103085000Y-115464707D01*
X102971961Y-114896422D01*
X102650054Y-114414653D01*
X102648821Y-114413829D01*
X102685317Y-114406962D01*
X102901441Y-114267890D01*
X103046431Y-114055690D01*
X103097440Y-113803800D01*
X103097440Y-113304285D01*
X108054760Y-113304285D01*
X108265169Y-113813515D01*
X108654436Y-114203461D01*
X109163298Y-114414759D01*
X109714285Y-114415240D01*
X110223515Y-114204831D01*
X110613461Y-113815564D01*
X110709976Y-113583130D01*
X110805169Y-113813515D01*
X111045000Y-114053764D01*
X111045000Y-114090660D01*
X111079000Y-114261589D01*
X111079000Y-115630829D01*
X110979180Y-115871223D01*
X110978821Y-116282971D01*
X111136058Y-116663515D01*
X111426954Y-116954919D01*
X111807223Y-117112820D01*
X112218971Y-117113179D01*
X112599515Y-116955942D01*
X112890919Y-116665046D01*
X113048820Y-116284777D01*
X113049179Y-115873029D01*
X112949000Y-115630576D01*
X112949000Y-114124660D01*
X112931576Y-114037063D01*
X112967183Y-114001517D01*
X113728088Y-114001517D01*
X113796077Y-114242460D01*
X114315171Y-114427201D01*
X114865448Y-114399230D01*
X115243923Y-114242460D01*
X115311912Y-114001517D01*
X114520000Y-113209605D01*
X113728088Y-114001517D01*
X112967183Y-114001517D01*
X113153461Y-113815564D01*
X113243377Y-113599021D01*
X113307540Y-113753923D01*
X113548483Y-113821912D01*
X114340395Y-113030000D01*
X113548483Y-112238088D01*
X113307540Y-112306077D01*
X113248268Y-112472621D01*
X113154831Y-112246485D01*
X112967157Y-112058483D01*
X113728088Y-112058483D01*
X114520000Y-112850395D01*
X115311912Y-112058483D01*
X115243923Y-111817540D01*
X114724829Y-111632799D01*
X114174552Y-111660770D01*
X113796077Y-111817540D01*
X113728088Y-112058483D01*
X112967157Y-112058483D01*
X112765564Y-111856539D01*
X112256702Y-111645241D01*
X111705715Y-111644760D01*
X111196485Y-111855169D01*
X110806539Y-112244436D01*
X110710024Y-112476870D01*
X110614831Y-112246485D01*
X110225564Y-111856539D01*
X109716702Y-111645241D01*
X109165715Y-111644760D01*
X108656485Y-111855169D01*
X108266539Y-112244436D01*
X108055241Y-112753298D01*
X108054760Y-113304285D01*
X103097440Y-113304285D01*
X103097440Y-112103800D01*
X103053162Y-111868483D01*
X102914090Y-111652359D01*
X102701890Y-111507369D01*
X102450000Y-111456360D01*
X100750000Y-111456360D01*
X100514683Y-111500638D01*
X100298559Y-111639710D01*
X100153569Y-111851910D01*
X100139914Y-111919341D01*
X100110054Y-111874653D01*
X99628285Y-111552746D01*
X99060000Y-111439707D01*
X98491715Y-111552746D01*
X98009946Y-111874653D01*
X97688039Y-112356422D01*
X97575000Y-112924707D01*
X95477440Y-112924707D01*
X95477440Y-112103800D01*
X95433162Y-111868483D01*
X95294090Y-111652359D01*
X95081890Y-111507369D01*
X94830000Y-111456360D01*
X93130000Y-111456360D01*
X92894683Y-111500638D01*
X92678559Y-111639710D01*
X92533569Y-111851910D01*
X92482560Y-112103800D01*
X92482560Y-113803800D01*
X92526838Y-114039117D01*
X92665910Y-114255241D01*
X92878110Y-114400231D01*
X92945541Y-114413886D01*
X92900853Y-114443746D01*
X92578946Y-114925515D01*
X92465907Y-115493800D01*
X90601440Y-115493800D01*
X90601440Y-115246000D01*
X90557162Y-115010683D01*
X90418090Y-114794559D01*
X90411452Y-114790023D01*
X90600965Y-114262777D01*
X90573778Y-113692546D01*
X90407864Y-113291995D01*
X90161745Y-113217861D01*
X89333605Y-114046000D01*
X89347748Y-114060142D01*
X89168143Y-114239748D01*
X89154000Y-114225605D01*
X89139858Y-114239748D01*
X88960252Y-114060142D01*
X88974395Y-114046000D01*
X88146255Y-113217861D01*
X87900136Y-113291995D01*
X87707035Y-113829223D01*
X87734222Y-114399454D01*
X87896384Y-114790947D01*
X87814356Y-114911000D01*
X84397018Y-114911000D01*
X84322090Y-114794559D01*
X84315452Y-114790023D01*
X84504965Y-114262777D01*
X84477778Y-113692546D01*
X84311864Y-113291995D01*
X84065745Y-113217861D01*
X83237605Y-114046000D01*
X83251748Y-114060142D01*
X83072143Y-114239748D01*
X83058000Y-114225605D01*
X83043858Y-114239748D01*
X82864252Y-114060142D01*
X82878395Y-114046000D01*
X82050255Y-113217861D01*
X81804136Y-113291995D01*
X81611035Y-113829223D01*
X81638222Y-114399454D01*
X81800384Y-114790947D01*
X81661569Y-114994110D01*
X81610560Y-115246000D01*
X53034000Y-115246000D01*
X53034000Y-113416367D01*
X57126732Y-113416367D01*
X57361752Y-113985161D01*
X57796550Y-114420718D01*
X58364933Y-114656731D01*
X58980367Y-114657268D01*
X59549161Y-114422248D01*
X59984718Y-113987450D01*
X60220731Y-113419067D01*
X60221063Y-113038255D01*
X82229861Y-113038255D01*
X83058000Y-113866395D01*
X83886139Y-113038255D01*
X88325861Y-113038255D01*
X89154000Y-113866395D01*
X89982139Y-113038255D01*
X89908005Y-112792136D01*
X89370777Y-112599035D01*
X88800546Y-112626222D01*
X88399995Y-112792136D01*
X88325861Y-113038255D01*
X83886139Y-113038255D01*
X83812005Y-112792136D01*
X83274777Y-112599035D01*
X82704546Y-112626222D01*
X82303995Y-112792136D01*
X82229861Y-113038255D01*
X60221063Y-113038255D01*
X60221268Y-112803633D01*
X59986248Y-112234839D01*
X59551450Y-111799282D01*
X58983067Y-111563269D01*
X58367633Y-111562732D01*
X57798839Y-111797752D01*
X57363282Y-112232550D01*
X57127269Y-112800933D01*
X57126732Y-113416367D01*
X53034000Y-113416367D01*
X53034000Y-108235750D01*
X54395000Y-108235750D01*
X54395000Y-108926309D01*
X54491673Y-109159698D01*
X54670301Y-109338327D01*
X54903690Y-109435000D01*
X55594250Y-109435000D01*
X55753000Y-109276250D01*
X55753000Y-108077000D01*
X54553750Y-108077000D01*
X54395000Y-108235750D01*
X53034000Y-108235750D01*
X53034000Y-106973691D01*
X54395000Y-106973691D01*
X54395000Y-107664250D01*
X54553750Y-107823000D01*
X55753000Y-107823000D01*
X55753000Y-106623750D01*
X56007000Y-106623750D01*
X56007000Y-107823000D01*
X56027000Y-107823000D01*
X56027000Y-108077000D01*
X56007000Y-108077000D01*
X56007000Y-109276250D01*
X56165750Y-109435000D01*
X56856310Y-109435000D01*
X57089699Y-109338327D01*
X57268327Y-109159698D01*
X57340597Y-108985223D01*
X57369946Y-109029147D01*
X57851715Y-109351054D01*
X58420000Y-109464093D01*
X58988285Y-109351054D01*
X59470054Y-109029147D01*
X59690000Y-108699974D01*
X59909946Y-109029147D01*
X60391715Y-109351054D01*
X60960000Y-109464093D01*
X61528285Y-109351054D01*
X62010054Y-109029147D01*
X62230000Y-108699974D01*
X62449946Y-109029147D01*
X62931715Y-109351054D01*
X63500000Y-109464093D01*
X64068285Y-109351054D01*
X64550054Y-109029147D01*
X64770000Y-108699974D01*
X64989946Y-109029147D01*
X65471715Y-109351054D01*
X66040000Y-109464093D01*
X66608285Y-109351054D01*
X67090054Y-109029147D01*
X67310000Y-108699974D01*
X67529946Y-109029147D01*
X68011715Y-109351054D01*
X68580000Y-109464093D01*
X69148285Y-109351054D01*
X69630054Y-109029147D01*
X69850000Y-108699974D01*
X70069946Y-109029147D01*
X70551715Y-109351054D01*
X71120000Y-109464093D01*
X71688285Y-109351054D01*
X72170054Y-109029147D01*
X72390000Y-108699974D01*
X72609946Y-109029147D01*
X73091715Y-109351054D01*
X73660000Y-109464093D01*
X74228285Y-109351054D01*
X74710054Y-109029147D01*
X74930000Y-108699974D01*
X75149946Y-109029147D01*
X75631715Y-109351054D01*
X76200000Y-109464093D01*
X76768285Y-109351054D01*
X77250054Y-109029147D01*
X77470000Y-108699974D01*
X77689946Y-109029147D01*
X78171715Y-109351054D01*
X78740000Y-109464093D01*
X79308285Y-109351054D01*
X79790054Y-109029147D01*
X80010000Y-108699974D01*
X80229946Y-109029147D01*
X80711715Y-109351054D01*
X81280000Y-109464093D01*
X81848285Y-109351054D01*
X82330054Y-109029147D01*
X82550000Y-108699974D01*
X82769946Y-109029147D01*
X83060000Y-109222954D01*
X83060000Y-109927537D01*
X83027808Y-109959673D01*
X82885162Y-110303201D01*
X82884838Y-110675167D01*
X83026883Y-111018943D01*
X83289673Y-111282192D01*
X83633201Y-111424838D01*
X84005167Y-111425162D01*
X84348943Y-111283117D01*
X84612192Y-111020327D01*
X84718510Y-110764285D01*
X106784760Y-110764285D01*
X106995169Y-111273515D01*
X107384436Y-111663461D01*
X107893298Y-111874759D01*
X108444285Y-111875240D01*
X108953515Y-111664831D01*
X109157183Y-111461517D01*
X109918088Y-111461517D01*
X109986077Y-111702460D01*
X110505171Y-111887201D01*
X111055448Y-111859230D01*
X111433923Y-111702460D01*
X111501912Y-111461517D01*
X110710000Y-110669605D01*
X109918088Y-111461517D01*
X109157183Y-111461517D01*
X109343461Y-111275564D01*
X109433377Y-111059021D01*
X109497540Y-111213923D01*
X109738483Y-111281912D01*
X110530395Y-110490000D01*
X110889605Y-110490000D01*
X111681517Y-111281912D01*
X111922460Y-111213923D01*
X111981732Y-111047379D01*
X112075169Y-111273515D01*
X112464436Y-111663461D01*
X112973298Y-111874759D01*
X113524285Y-111875240D01*
X114033515Y-111664831D01*
X114423461Y-111275564D01*
X114519976Y-111043130D01*
X114615169Y-111273515D01*
X115004436Y-111663461D01*
X115513298Y-111874759D01*
X115818167Y-111875025D01*
X115713569Y-112028110D01*
X115662560Y-112280000D01*
X115662560Y-112286353D01*
X115491517Y-112238088D01*
X114699605Y-113030000D01*
X115491517Y-113821912D01*
X115662560Y-113773647D01*
X115662560Y-113780000D01*
X115706838Y-114015317D01*
X115845910Y-114231441D01*
X116058110Y-114376431D01*
X116310000Y-114427440D01*
X117810000Y-114427440D01*
X118045317Y-114383162D01*
X118261441Y-114244090D01*
X118406431Y-114031890D01*
X118457440Y-113780000D01*
X118457440Y-113304285D01*
X125834760Y-113304285D01*
X126045169Y-113813515D01*
X126434436Y-114203461D01*
X126943298Y-114414759D01*
X127494285Y-114415240D01*
X128003515Y-114204831D01*
X128393461Y-113815564D01*
X128489976Y-113583130D01*
X128585169Y-113813515D01*
X128974436Y-114203461D01*
X129483298Y-114414759D01*
X130034285Y-114415240D01*
X130543515Y-114204831D01*
X130747183Y-114001517D01*
X131508088Y-114001517D01*
X131576077Y-114242460D01*
X132095171Y-114427201D01*
X132645448Y-114399230D01*
X133023923Y-114242460D01*
X133091912Y-114001517D01*
X132300000Y-113209605D01*
X131508088Y-114001517D01*
X130747183Y-114001517D01*
X130933461Y-113815564D01*
X131023377Y-113599021D01*
X131087540Y-113753923D01*
X131328483Y-113821912D01*
X132120395Y-113030000D01*
X131328483Y-112238088D01*
X131087540Y-112306077D01*
X131028268Y-112472621D01*
X130934831Y-112246485D01*
X130747157Y-112058483D01*
X131508088Y-112058483D01*
X132300000Y-112850395D01*
X133091912Y-112058483D01*
X133023923Y-111817540D01*
X132504829Y-111632799D01*
X131954552Y-111660770D01*
X131576077Y-111817540D01*
X131508088Y-112058483D01*
X130747157Y-112058483D01*
X130545564Y-111856539D01*
X130036702Y-111645241D01*
X129485715Y-111644760D01*
X128976485Y-111855169D01*
X128586539Y-112244436D01*
X128490024Y-112476870D01*
X128394831Y-112246485D01*
X128005564Y-111856539D01*
X127496702Y-111645241D01*
X126945715Y-111644760D01*
X126436485Y-111855169D01*
X126046539Y-112244436D01*
X125835241Y-112753298D01*
X125834760Y-113304285D01*
X118457440Y-113304285D01*
X118457440Y-112280000D01*
X118413162Y-112044683D01*
X118274090Y-111828559D01*
X118061890Y-111683569D01*
X117810000Y-111632560D01*
X116605842Y-111632560D01*
X116963461Y-111275564D01*
X117174759Y-110766702D01*
X117174761Y-110764285D01*
X124564760Y-110764285D01*
X124775169Y-111273515D01*
X125164436Y-111663461D01*
X125673298Y-111874759D01*
X126224285Y-111875240D01*
X126733515Y-111664831D01*
X126937183Y-111461517D01*
X127698088Y-111461517D01*
X127766077Y-111702460D01*
X128285171Y-111887201D01*
X128835448Y-111859230D01*
X129213923Y-111702460D01*
X129281912Y-111461517D01*
X128490000Y-110669605D01*
X127698088Y-111461517D01*
X126937183Y-111461517D01*
X127123461Y-111275564D01*
X127213377Y-111059021D01*
X127277540Y-111213923D01*
X127518483Y-111281912D01*
X128310395Y-110490000D01*
X128669605Y-110490000D01*
X129461517Y-111281912D01*
X129702460Y-111213923D01*
X129761732Y-111047379D01*
X129855169Y-111273515D01*
X130244436Y-111663461D01*
X130753298Y-111874759D01*
X131304285Y-111875240D01*
X131813515Y-111664831D01*
X132203461Y-111275564D01*
X132299976Y-111043130D01*
X132395169Y-111273515D01*
X132784436Y-111663461D01*
X133293298Y-111874759D01*
X133598167Y-111875025D01*
X133493569Y-112028110D01*
X133442560Y-112280000D01*
X133442560Y-112286353D01*
X133271517Y-112238088D01*
X132479605Y-113030000D01*
X133271517Y-113821912D01*
X133442560Y-113773647D01*
X133442560Y-113780000D01*
X133486838Y-114015317D01*
X133625910Y-114231441D01*
X133838110Y-114376431D01*
X134090000Y-114427440D01*
X135590000Y-114427440D01*
X135825317Y-114383162D01*
X136041441Y-114244090D01*
X136186431Y-114031890D01*
X136237440Y-113780000D01*
X136237440Y-112280000D01*
X136193162Y-112044683D01*
X136054090Y-111828559D01*
X135953751Y-111760000D01*
X138185907Y-111760000D01*
X138298946Y-112328285D01*
X138620853Y-112810054D01*
X138662452Y-112837850D01*
X138614683Y-112846838D01*
X138398559Y-112985910D01*
X138253569Y-113198110D01*
X138202560Y-113450000D01*
X138202560Y-115150000D01*
X138246838Y-115385317D01*
X138385910Y-115601441D01*
X138598110Y-115746431D01*
X138850000Y-115797440D01*
X140550000Y-115797440D01*
X140785317Y-115753162D01*
X141001441Y-115614090D01*
X141146431Y-115401890D01*
X141197440Y-115150000D01*
X141197440Y-113450000D01*
X141153162Y-113214683D01*
X141014090Y-112998559D01*
X140801890Y-112853569D01*
X140734459Y-112839914D01*
X140779147Y-112810054D01*
X141101054Y-112328285D01*
X141214093Y-111760000D01*
X141101054Y-111191715D01*
X140779147Y-110709946D01*
X140297378Y-110388039D01*
X139729093Y-110275000D01*
X139670907Y-110275000D01*
X139102622Y-110388039D01*
X138620853Y-110709946D01*
X138298946Y-111191715D01*
X138185907Y-111760000D01*
X135953751Y-111760000D01*
X135841890Y-111683569D01*
X135590000Y-111632560D01*
X134385842Y-111632560D01*
X134743461Y-111275564D01*
X134954759Y-110766702D01*
X134955240Y-110215715D01*
X134744831Y-109706485D01*
X134355564Y-109316539D01*
X133846702Y-109105241D01*
X133295715Y-109104760D01*
X132786485Y-109315169D01*
X132396539Y-109704436D01*
X132300024Y-109936870D01*
X132204831Y-109706485D01*
X131815564Y-109316539D01*
X131306702Y-109105241D01*
X130755715Y-109104760D01*
X130246485Y-109315169D01*
X129856539Y-109704436D01*
X129766623Y-109920979D01*
X129702460Y-109766077D01*
X129461517Y-109698088D01*
X128669605Y-110490000D01*
X128310395Y-110490000D01*
X127518483Y-109698088D01*
X127277540Y-109766077D01*
X127218268Y-109932621D01*
X127124831Y-109706485D01*
X126937157Y-109518483D01*
X127698088Y-109518483D01*
X128490000Y-110310395D01*
X129281912Y-109518483D01*
X129213923Y-109277540D01*
X128694829Y-109092799D01*
X128144552Y-109120770D01*
X127766077Y-109277540D01*
X127698088Y-109518483D01*
X126937157Y-109518483D01*
X126735564Y-109316539D01*
X126226702Y-109105241D01*
X125675715Y-109104760D01*
X125166485Y-109315169D01*
X124776539Y-109704436D01*
X124565241Y-110213298D01*
X124564760Y-110764285D01*
X117174761Y-110764285D01*
X117175240Y-110215715D01*
X116964831Y-109706485D01*
X116575564Y-109316539D01*
X116066702Y-109105241D01*
X115515715Y-109104760D01*
X115006485Y-109315169D01*
X114616539Y-109704436D01*
X114520024Y-109936870D01*
X114424831Y-109706485D01*
X114035564Y-109316539D01*
X113526702Y-109105241D01*
X112975715Y-109104760D01*
X112466485Y-109315169D01*
X112076539Y-109704436D01*
X111986623Y-109920979D01*
X111922460Y-109766077D01*
X111681517Y-109698088D01*
X110889605Y-110490000D01*
X110530395Y-110490000D01*
X109738483Y-109698088D01*
X109497540Y-109766077D01*
X109438268Y-109932621D01*
X109344831Y-109706485D01*
X109157157Y-109518483D01*
X109918088Y-109518483D01*
X110710000Y-110310395D01*
X111501912Y-109518483D01*
X111433923Y-109277540D01*
X110914829Y-109092799D01*
X110364552Y-109120770D01*
X109986077Y-109277540D01*
X109918088Y-109518483D01*
X109157157Y-109518483D01*
X108955564Y-109316539D01*
X108446702Y-109105241D01*
X107895715Y-109104760D01*
X107386485Y-109315169D01*
X106996539Y-109704436D01*
X106785241Y-110213298D01*
X106784760Y-110764285D01*
X84718510Y-110764285D01*
X84754838Y-110676799D01*
X84755162Y-110304833D01*
X84613117Y-109961057D01*
X84580000Y-109927882D01*
X84580000Y-109222954D01*
X84870054Y-109029147D01*
X85090000Y-108699974D01*
X85309946Y-109029147D01*
X85791715Y-109351054D01*
X86360000Y-109464093D01*
X86928285Y-109351054D01*
X87410054Y-109029147D01*
X87630000Y-108699974D01*
X87849946Y-109029147D01*
X88331715Y-109351054D01*
X88900000Y-109464093D01*
X89468285Y-109351054D01*
X89950054Y-109029147D01*
X90271961Y-108547378D01*
X90385000Y-107979093D01*
X90385000Y-107920907D01*
X90271961Y-107352622D01*
X89950054Y-106870853D01*
X89468285Y-106548946D01*
X88900000Y-106435907D01*
X88571096Y-106501330D01*
X88507942Y-106348485D01*
X88390000Y-106230337D01*
X88390000Y-105595167D01*
X91266838Y-105595167D01*
X91408883Y-105938943D01*
X91442000Y-105972118D01*
X91442000Y-106371537D01*
X91409808Y-106403673D01*
X91267162Y-106747201D01*
X91266838Y-107119167D01*
X91408883Y-107462943D01*
X91671673Y-107726192D01*
X92015201Y-107868838D01*
X92387167Y-107869162D01*
X92730943Y-107727117D01*
X92994192Y-107464327D01*
X93136838Y-107120799D01*
X93137162Y-106748833D01*
X92995117Y-106405057D01*
X92962000Y-106371882D01*
X92962000Y-105972463D01*
X92994192Y-105940327D01*
X93136838Y-105596799D01*
X93137162Y-105224833D01*
X92995117Y-104881057D01*
X92732327Y-104617808D01*
X92388799Y-104475162D01*
X92016833Y-104474838D01*
X91673057Y-104616883D01*
X91409808Y-104879673D01*
X91267162Y-105223201D01*
X91266838Y-105595167D01*
X88390000Y-105595167D01*
X88390000Y-104617804D01*
X89046402Y-103961402D01*
X89211149Y-103714840D01*
X89269001Y-103424001D01*
X89269001Y-102733001D01*
X89251011Y-102642560D01*
X89211149Y-102442161D01*
X89046402Y-102195600D01*
X88127969Y-101277167D01*
X96054835Y-101277167D01*
X96196880Y-101620943D01*
X96229997Y-101654118D01*
X96229997Y-102815537D01*
X96197805Y-102847673D01*
X96055159Y-103191201D01*
X96054835Y-103563167D01*
X96196880Y-103906943D01*
X96459670Y-104170192D01*
X96803198Y-104312838D01*
X97175164Y-104313162D01*
X97390103Y-104224351D01*
X97603201Y-104312838D01*
X97975167Y-104313162D01*
X98240229Y-104203641D01*
X98503204Y-104312838D01*
X98875170Y-104313162D01*
X99218946Y-104171117D01*
X99482195Y-103908327D01*
X99624841Y-103564799D01*
X99625165Y-103192833D01*
X99483120Y-102849057D01*
X99450003Y-102815882D01*
X99450003Y-100500460D01*
X99482195Y-100468324D01*
X99624841Y-100124796D01*
X99625165Y-99752830D01*
X99483120Y-99409054D01*
X99220330Y-99145805D01*
X98876802Y-99003159D01*
X98504836Y-99002835D01*
X98355144Y-99064686D01*
X98320327Y-99029808D01*
X97976799Y-98887162D01*
X97604833Y-98886838D01*
X97261057Y-99028883D01*
X96997808Y-99291673D01*
X96855162Y-99635201D01*
X96854838Y-100007167D01*
X96916721Y-100156935D01*
X96804830Y-100156838D01*
X96461054Y-100298883D01*
X96197805Y-100561673D01*
X96055159Y-100905201D01*
X96054835Y-101277167D01*
X88127969Y-101277167D01*
X87621937Y-100771135D01*
X87621937Y-100519698D01*
X87738856Y-100402983D01*
X87896757Y-100022714D01*
X87897116Y-99610966D01*
X87739879Y-99230422D01*
X87448983Y-98939018D01*
X87068714Y-98781117D01*
X86656966Y-98780758D01*
X86276422Y-98937995D01*
X85985018Y-99228891D01*
X85827117Y-99609160D01*
X85826845Y-99920621D01*
X85784799Y-99903162D01*
X85412833Y-99902838D01*
X85263098Y-99964707D01*
X85263162Y-99890833D01*
X85121117Y-99547057D01*
X84858327Y-99283808D01*
X84514799Y-99141162D01*
X84142833Y-99140838D01*
X83799057Y-99282883D01*
X83535808Y-99545673D01*
X83393162Y-99889201D01*
X83393079Y-99984549D01*
X83325853Y-100085160D01*
X83268001Y-100375999D01*
X83268001Y-101436796D01*
X83244799Y-101427162D01*
X82872833Y-101426838D01*
X82529057Y-101568883D01*
X82265808Y-101831673D01*
X82123162Y-102175201D01*
X82122838Y-102547167D01*
X82264883Y-102890943D01*
X82527673Y-103154192D01*
X82871201Y-103296838D01*
X83088489Y-103297027D01*
X84691769Y-104900307D01*
X84663162Y-104969201D01*
X84662838Y-105341167D01*
X84804883Y-105684943D01*
X85067673Y-105948192D01*
X85411201Y-106090838D01*
X85783167Y-106091162D01*
X86126943Y-105949117D01*
X86390192Y-105686327D01*
X86532838Y-105342799D01*
X86532850Y-105329151D01*
X86545167Y-105329162D01*
X86870000Y-105194944D01*
X86870000Y-106230239D01*
X86753081Y-106346954D01*
X86688973Y-106501344D01*
X86360000Y-106435907D01*
X85791715Y-106548946D01*
X85309946Y-106870853D01*
X85090000Y-107200026D01*
X84870054Y-106870853D01*
X84388285Y-106548946D01*
X83820000Y-106435907D01*
X83251715Y-106548946D01*
X82769946Y-106870853D01*
X82550000Y-107200026D01*
X82330054Y-106870853D01*
X81848285Y-106548946D01*
X81280000Y-106435907D01*
X80711715Y-106548946D01*
X80229946Y-106870853D01*
X80010000Y-107200026D01*
X79790054Y-106870853D01*
X79308285Y-106548946D01*
X78740000Y-106435907D01*
X78171715Y-106548946D01*
X77689946Y-106870853D01*
X77470000Y-107200026D01*
X77250054Y-106870853D01*
X76768285Y-106548946D01*
X76200000Y-106435907D01*
X75631715Y-106548946D01*
X75149946Y-106870853D01*
X74930000Y-107200026D01*
X74710054Y-106870853D01*
X74228285Y-106548946D01*
X73660000Y-106435907D01*
X73091715Y-106548946D01*
X72609946Y-106870853D01*
X72390000Y-107200026D01*
X72170054Y-106870853D01*
X71688285Y-106548946D01*
X71120000Y-106435907D01*
X70551715Y-106548946D01*
X70069946Y-106870853D01*
X69850000Y-107200026D01*
X69630054Y-106870853D01*
X69148285Y-106548946D01*
X68580000Y-106435907D01*
X68011715Y-106548946D01*
X67529946Y-106870853D01*
X67310000Y-107200026D01*
X67090054Y-106870853D01*
X66608285Y-106548946D01*
X66040000Y-106435907D01*
X65471715Y-106548946D01*
X64989946Y-106870853D01*
X64770000Y-107200026D01*
X64550054Y-106870853D01*
X64068285Y-106548946D01*
X63500000Y-106435907D01*
X62931715Y-106548946D01*
X62449946Y-106870853D01*
X62230000Y-107200026D01*
X62010054Y-106870853D01*
X61528285Y-106548946D01*
X60960000Y-106435907D01*
X60391715Y-106548946D01*
X59909946Y-106870853D01*
X59690000Y-107200026D01*
X59470054Y-106870853D01*
X58988285Y-106548946D01*
X58420000Y-106435907D01*
X57851715Y-106548946D01*
X57369946Y-106870853D01*
X57340597Y-106914777D01*
X57268327Y-106740302D01*
X57089699Y-106561673D01*
X56856310Y-106465000D01*
X56165750Y-106465000D01*
X56007000Y-106623750D01*
X55753000Y-106623750D01*
X55594250Y-106465000D01*
X54903690Y-106465000D01*
X54670301Y-106561673D01*
X54491673Y-106740302D01*
X54395000Y-106973691D01*
X53034000Y-106973691D01*
X53034000Y-97213167D01*
X89234838Y-97213167D01*
X89376883Y-97556943D01*
X89639673Y-97820192D01*
X89983201Y-97962838D01*
X90355167Y-97963162D01*
X90698943Y-97821117D01*
X90962192Y-97558327D01*
X91006585Y-97451417D01*
X91418002Y-97040000D01*
X106772560Y-97040000D01*
X106772560Y-98540000D01*
X106816838Y-98775317D01*
X106955910Y-98991441D01*
X107168110Y-99136431D01*
X107420000Y-99187440D01*
X108624158Y-99187440D01*
X108266539Y-99544436D01*
X108055241Y-100053298D01*
X108054760Y-100604285D01*
X108265169Y-101113515D01*
X108654436Y-101503461D01*
X109163298Y-101714759D01*
X109714285Y-101715240D01*
X110223515Y-101504831D01*
X110613461Y-101115564D01*
X110709976Y-100883130D01*
X110805169Y-101113515D01*
X111194436Y-101503461D01*
X111703298Y-101714759D01*
X112254285Y-101715240D01*
X112763515Y-101504831D01*
X112967183Y-101301517D01*
X113728088Y-101301517D01*
X113796077Y-101542460D01*
X114315171Y-101727201D01*
X114865448Y-101699230D01*
X115243923Y-101542460D01*
X115311912Y-101301517D01*
X114520000Y-100509605D01*
X113728088Y-101301517D01*
X112967183Y-101301517D01*
X113153461Y-101115564D01*
X113243377Y-100899021D01*
X113307540Y-101053923D01*
X113548483Y-101121912D01*
X114340395Y-100330000D01*
X114699605Y-100330000D01*
X115491517Y-101121912D01*
X115732460Y-101053923D01*
X115791732Y-100887379D01*
X115885169Y-101113515D01*
X116274436Y-101503461D01*
X116783298Y-101714759D01*
X117334285Y-101715240D01*
X117843515Y-101504831D01*
X118233461Y-101115564D01*
X118444759Y-100606702D01*
X118445240Y-100055715D01*
X118234831Y-99546485D01*
X117845564Y-99156539D01*
X117336702Y-98945241D01*
X116785715Y-98944760D01*
X116276485Y-99155169D01*
X115886539Y-99544436D01*
X115796623Y-99760979D01*
X115732460Y-99606077D01*
X115491517Y-99538088D01*
X114699605Y-100330000D01*
X114340395Y-100330000D01*
X113548483Y-99538088D01*
X113307540Y-99606077D01*
X113248268Y-99772621D01*
X113154831Y-99546485D01*
X112967157Y-99358483D01*
X113728088Y-99358483D01*
X114520000Y-100150395D01*
X115311912Y-99358483D01*
X115243923Y-99117540D01*
X114724829Y-98932799D01*
X114174552Y-98960770D01*
X113796077Y-99117540D01*
X113728088Y-99358483D01*
X112967157Y-99358483D01*
X112765564Y-99156539D01*
X112256702Y-98945241D01*
X111705715Y-98944760D01*
X111196485Y-99155169D01*
X110806539Y-99544436D01*
X110710024Y-99776870D01*
X110614831Y-99546485D01*
X110225564Y-99156539D01*
X109716702Y-98945241D01*
X109411833Y-98944975D01*
X109516431Y-98791890D01*
X109522581Y-98761517D01*
X109918088Y-98761517D01*
X109986077Y-99002460D01*
X110505171Y-99187201D01*
X111055448Y-99159230D01*
X111433923Y-99002460D01*
X111501912Y-98761517D01*
X110710000Y-97969605D01*
X109918088Y-98761517D01*
X109522581Y-98761517D01*
X109567440Y-98540000D01*
X109567440Y-98533647D01*
X109738483Y-98581912D01*
X110530395Y-97790000D01*
X110889605Y-97790000D01*
X111681517Y-98581912D01*
X111922460Y-98513923D01*
X111981732Y-98347379D01*
X112075169Y-98573515D01*
X112464436Y-98963461D01*
X112973298Y-99174759D01*
X113524285Y-99175240D01*
X114033515Y-98964831D01*
X114423461Y-98575564D01*
X114519976Y-98343130D01*
X114615169Y-98573515D01*
X115004436Y-98963461D01*
X115513298Y-99174759D01*
X116064285Y-99175240D01*
X116573515Y-98964831D01*
X116963461Y-98575564D01*
X117174759Y-98066702D01*
X117175240Y-97515715D01*
X116978680Y-97040000D01*
X124552560Y-97040000D01*
X124552560Y-98540000D01*
X124596838Y-98775317D01*
X124735910Y-98991441D01*
X124948110Y-99136431D01*
X125200000Y-99187440D01*
X126404158Y-99187440D01*
X126046539Y-99544436D01*
X125835241Y-100053298D01*
X125834760Y-100604285D01*
X126045169Y-101113515D01*
X126434436Y-101503461D01*
X126943298Y-101714759D01*
X127494285Y-101715240D01*
X128003515Y-101504831D01*
X128393461Y-101115564D01*
X128489976Y-100883130D01*
X128585169Y-101113515D01*
X128825000Y-101353764D01*
X128825000Y-101390660D01*
X128896173Y-101748469D01*
X129098855Y-102051805D01*
X131848195Y-104801145D01*
X132151531Y-105003827D01*
X132509340Y-105075000D01*
X133138554Y-105075000D01*
X133166838Y-105225317D01*
X133287015Y-105412077D01*
X133173569Y-105578110D01*
X133122560Y-105830000D01*
X133122560Y-107530000D01*
X133166838Y-107765317D01*
X133305910Y-107981441D01*
X133518110Y-108126431D01*
X133770000Y-108177440D01*
X135470000Y-108177440D01*
X135705317Y-108133162D01*
X135921441Y-107994090D01*
X136066431Y-107781890D01*
X136080086Y-107714459D01*
X136109946Y-107759147D01*
X136591715Y-108081054D01*
X137160000Y-108194093D01*
X137728285Y-108081054D01*
X138210054Y-107759147D01*
X138531961Y-107277378D01*
X138645000Y-106709093D01*
X138645000Y-106650907D01*
X138531961Y-106082622D01*
X138210054Y-105600853D01*
X137924422Y-105410000D01*
X138210054Y-105219147D01*
X138531961Y-104737378D01*
X138645000Y-104169093D01*
X138645000Y-104110907D01*
X138531961Y-103542622D01*
X138210054Y-103060853D01*
X137728285Y-102738946D01*
X137160000Y-102625907D01*
X136591715Y-102738946D01*
X136109946Y-103060853D01*
X136082150Y-103102452D01*
X136073162Y-103054683D01*
X135934090Y-102838559D01*
X135721890Y-102693569D01*
X135470000Y-102642560D01*
X133770000Y-102642560D01*
X133534683Y-102686838D01*
X133318559Y-102825910D01*
X133173569Y-103038110D01*
X133139773Y-103205000D01*
X132896630Y-103205000D01*
X130993147Y-101301517D01*
X131508088Y-101301517D01*
X131576077Y-101542460D01*
X132095171Y-101727201D01*
X132645448Y-101699230D01*
X133023923Y-101542460D01*
X133091912Y-101301517D01*
X132300000Y-100509605D01*
X131508088Y-101301517D01*
X130993147Y-101301517D01*
X130870272Y-101178642D01*
X130933461Y-101115564D01*
X131023377Y-100899021D01*
X131087540Y-101053923D01*
X131328483Y-101121912D01*
X132120395Y-100330000D01*
X132479605Y-100330000D01*
X133271517Y-101121912D01*
X133512460Y-101053923D01*
X133571732Y-100887379D01*
X133665169Y-101113515D01*
X134054436Y-101503461D01*
X134563298Y-101714759D01*
X135114285Y-101715240D01*
X135623515Y-101504831D01*
X136013461Y-101115564D01*
X136224759Y-100606702D01*
X136225240Y-100055715D01*
X136014831Y-99546485D01*
X135625564Y-99156539D01*
X135393073Y-99060000D01*
X138185907Y-99060000D01*
X138298946Y-99628285D01*
X138620853Y-100110054D01*
X139102622Y-100431961D01*
X139670907Y-100545000D01*
X139729093Y-100545000D01*
X140297378Y-100431961D01*
X140779147Y-100110054D01*
X141101054Y-99628285D01*
X141214093Y-99060000D01*
X141101054Y-98491715D01*
X140779147Y-98009946D01*
X140737548Y-97982150D01*
X140785317Y-97973162D01*
X141001441Y-97834090D01*
X141146431Y-97621890D01*
X141197440Y-97370000D01*
X141197440Y-95670000D01*
X141153162Y-95434683D01*
X141014090Y-95218559D01*
X140801890Y-95073569D01*
X140550000Y-95022560D01*
X138850000Y-95022560D01*
X138614683Y-95066838D01*
X138398559Y-95205910D01*
X138253569Y-95418110D01*
X138202560Y-95670000D01*
X138202560Y-97370000D01*
X138246838Y-97605317D01*
X138385910Y-97821441D01*
X138598110Y-97966431D01*
X138665541Y-97980086D01*
X138620853Y-98009946D01*
X138298946Y-98491715D01*
X138185907Y-99060000D01*
X135393073Y-99060000D01*
X135116702Y-98945241D01*
X134565715Y-98944760D01*
X134056485Y-99155169D01*
X133666539Y-99544436D01*
X133576623Y-99760979D01*
X133512460Y-99606077D01*
X133271517Y-99538088D01*
X132479605Y-100330000D01*
X132120395Y-100330000D01*
X132106253Y-100315858D01*
X132285858Y-100136253D01*
X132300000Y-100150395D01*
X133091912Y-99358483D01*
X133023923Y-99117540D01*
X132504829Y-98932799D01*
X131965000Y-98960239D01*
X131965000Y-98813610D01*
X132203461Y-98575564D01*
X132299976Y-98343130D01*
X132395169Y-98573515D01*
X132784436Y-98963461D01*
X133293298Y-99174759D01*
X133844285Y-99175240D01*
X134353515Y-98964831D01*
X134743461Y-98575564D01*
X134954759Y-98066702D01*
X134955240Y-97515715D01*
X134744831Y-97006485D01*
X134355564Y-96616539D01*
X133846702Y-96405241D01*
X133295715Y-96404760D01*
X132786485Y-96615169D01*
X132396539Y-97004436D01*
X132300024Y-97236870D01*
X132204831Y-97006485D01*
X131815564Y-96616539D01*
X131306702Y-96405241D01*
X130755715Y-96404760D01*
X130246485Y-96615169D01*
X129856539Y-97004436D01*
X129766623Y-97220979D01*
X129702460Y-97066077D01*
X129461517Y-96998088D01*
X128669605Y-97790000D01*
X129461517Y-98581912D01*
X129702460Y-98513923D01*
X129761732Y-98347379D01*
X129855169Y-98573515D01*
X130024534Y-98743176D01*
X129822656Y-98945054D01*
X129485715Y-98944760D01*
X128976485Y-99155169D01*
X128586539Y-99544436D01*
X128490024Y-99776870D01*
X128394831Y-99546485D01*
X128005564Y-99156539D01*
X127496702Y-98945241D01*
X127191833Y-98944975D01*
X127296431Y-98791890D01*
X127302581Y-98761517D01*
X127698088Y-98761517D01*
X127766077Y-99002460D01*
X128285171Y-99187201D01*
X128835448Y-99159230D01*
X129213923Y-99002460D01*
X129281912Y-98761517D01*
X128490000Y-97969605D01*
X127698088Y-98761517D01*
X127302581Y-98761517D01*
X127347440Y-98540000D01*
X127347440Y-98533647D01*
X127518483Y-98581912D01*
X128310395Y-97790000D01*
X127518483Y-96998088D01*
X127347440Y-97046353D01*
X127347440Y-97040000D01*
X127305759Y-96818483D01*
X127698088Y-96818483D01*
X128490000Y-97610395D01*
X129281912Y-96818483D01*
X129213923Y-96577540D01*
X128694829Y-96392799D01*
X128144552Y-96420770D01*
X127766077Y-96577540D01*
X127698088Y-96818483D01*
X127305759Y-96818483D01*
X127303162Y-96804683D01*
X127164090Y-96588559D01*
X126951890Y-96443569D01*
X126700000Y-96392560D01*
X125200000Y-96392560D01*
X124964683Y-96436838D01*
X124748559Y-96575910D01*
X124603569Y-96788110D01*
X124552560Y-97040000D01*
X116978680Y-97040000D01*
X116964831Y-97006485D01*
X116575564Y-96616539D01*
X116066702Y-96405241D01*
X115515715Y-96404760D01*
X115460868Y-96427422D01*
X115914948Y-95973342D01*
X116155515Y-95873942D01*
X116446919Y-95583046D01*
X116604820Y-95202777D01*
X116605179Y-94791029D01*
X116447942Y-94410485D01*
X116157046Y-94119081D01*
X115776777Y-93961180D01*
X115365029Y-93960821D01*
X114984485Y-94118058D01*
X114693081Y-94408954D01*
X114592479Y-94651231D01*
X113338854Y-95904856D01*
X113136172Y-96208192D01*
X113097051Y-96404866D01*
X112975715Y-96404760D01*
X112466485Y-96615169D01*
X112076539Y-97004436D01*
X111986623Y-97220979D01*
X111922460Y-97066077D01*
X111681517Y-96998088D01*
X110889605Y-97790000D01*
X110530395Y-97790000D01*
X109738483Y-96998088D01*
X109567440Y-97046353D01*
X109567440Y-97040000D01*
X109525759Y-96818483D01*
X109918088Y-96818483D01*
X110710000Y-97610395D01*
X111501912Y-96818483D01*
X111433923Y-96577540D01*
X110914829Y-96392799D01*
X110364552Y-96420770D01*
X109986077Y-96577540D01*
X109918088Y-96818483D01*
X109525759Y-96818483D01*
X109523162Y-96804683D01*
X109384090Y-96588559D01*
X109171890Y-96443569D01*
X108920000Y-96392560D01*
X107420000Y-96392560D01*
X107184683Y-96436838D01*
X106968559Y-96575910D01*
X106823569Y-96788110D01*
X106772560Y-97040000D01*
X91418002Y-97040000D01*
X92434280Y-96023722D01*
X92479767Y-96023762D01*
X92823543Y-95881717D01*
X93086792Y-95618927D01*
X93229438Y-95275399D01*
X93229762Y-94903433D01*
X93087717Y-94559657D01*
X92824927Y-94296408D01*
X92481399Y-94153762D01*
X92109433Y-94153438D01*
X91765657Y-94295483D01*
X91502408Y-94558273D01*
X91359762Y-94901801D01*
X91359721Y-94948677D01*
X90215359Y-96093039D01*
X89984833Y-96092838D01*
X89641057Y-96234883D01*
X89377808Y-96497673D01*
X89235162Y-96841201D01*
X89234838Y-97213167D01*
X53034000Y-97213167D01*
X53034000Y-92680907D01*
X54395000Y-92680907D01*
X54395000Y-92739093D01*
X54508039Y-93307378D01*
X54829946Y-93789147D01*
X55311715Y-94111054D01*
X55880000Y-94224093D01*
X56448285Y-94111054D01*
X56930054Y-93789147D01*
X57150000Y-93459974D01*
X57369946Y-93789147D01*
X57851715Y-94111054D01*
X58420000Y-94224093D01*
X58988285Y-94111054D01*
X59470054Y-93789147D01*
X59690000Y-93459974D01*
X59909946Y-93789147D01*
X60391715Y-94111054D01*
X60960000Y-94224093D01*
X61528285Y-94111054D01*
X62010054Y-93789147D01*
X62230000Y-93459974D01*
X62449946Y-93789147D01*
X62931715Y-94111054D01*
X63500000Y-94224093D01*
X64068285Y-94111054D01*
X64550054Y-93789147D01*
X64770000Y-93459974D01*
X64989946Y-93789147D01*
X65471715Y-94111054D01*
X66040000Y-94224093D01*
X66608285Y-94111054D01*
X67090054Y-93789147D01*
X67310000Y-93459974D01*
X67529946Y-93789147D01*
X68011715Y-94111054D01*
X68580000Y-94224093D01*
X69148285Y-94111054D01*
X69630054Y-93789147D01*
X69850000Y-93459974D01*
X70069946Y-93789147D01*
X70551715Y-94111054D01*
X71120000Y-94224093D01*
X71688285Y-94111054D01*
X72170054Y-93789147D01*
X72390000Y-93459974D01*
X72609946Y-93789147D01*
X73091715Y-94111054D01*
X73660000Y-94224093D01*
X74228285Y-94111054D01*
X74710054Y-93789147D01*
X74930000Y-93459974D01*
X75149946Y-93789147D01*
X75631715Y-94111054D01*
X76200000Y-94224093D01*
X76768285Y-94111054D01*
X77250054Y-93789147D01*
X77470000Y-93459974D01*
X77689946Y-93789147D01*
X78171715Y-94111054D01*
X78740000Y-94224093D01*
X79308285Y-94111054D01*
X79790054Y-93789147D01*
X80010000Y-93459974D01*
X80229946Y-93789147D01*
X80711715Y-94111054D01*
X81280000Y-94224093D01*
X81848285Y-94111054D01*
X82330054Y-93789147D01*
X82550000Y-93459974D01*
X82769946Y-93789147D01*
X83251715Y-94111054D01*
X83820000Y-94224093D01*
X84388285Y-94111054D01*
X84870054Y-93789147D01*
X85090000Y-93459974D01*
X85309946Y-93789147D01*
X85791715Y-94111054D01*
X85994626Y-94151415D01*
X85991081Y-94154954D01*
X85833180Y-94535223D01*
X85832821Y-94946971D01*
X85990058Y-95327515D01*
X86280954Y-95618919D01*
X86661223Y-95776820D01*
X87072971Y-95777179D01*
X87453515Y-95619942D01*
X87744919Y-95329046D01*
X87902820Y-94948777D01*
X87902966Y-94781836D01*
X88477362Y-94207440D01*
X89750000Y-94207440D01*
X89985317Y-94163162D01*
X90201441Y-94024090D01*
X90346431Y-93811890D01*
X90397440Y-93560000D01*
X90397440Y-91927177D01*
X104219574Y-91927177D01*
X104593298Y-92831657D01*
X105284703Y-93524270D01*
X106188529Y-93899572D01*
X107167177Y-93900426D01*
X108071657Y-93526702D01*
X108764270Y-92835297D01*
X109139572Y-91931471D01*
X109139575Y-91927177D01*
X116089574Y-91927177D01*
X116463298Y-92831657D01*
X117154703Y-93524270D01*
X118058529Y-93899572D01*
X119037177Y-93900426D01*
X119941657Y-93526702D01*
X120634270Y-92835297D01*
X121009572Y-91931471D01*
X121009575Y-91927177D01*
X121999574Y-91927177D01*
X122373298Y-92831657D01*
X123064703Y-93524270D01*
X123968529Y-93899572D01*
X124947177Y-93900426D01*
X125851657Y-93526702D01*
X126544270Y-92835297D01*
X126919572Y-91931471D01*
X126919575Y-91927177D01*
X133869574Y-91927177D01*
X134243298Y-92831657D01*
X134934703Y-93524270D01*
X135838529Y-93899572D01*
X136817177Y-93900426D01*
X137721657Y-93526702D01*
X138414270Y-92835297D01*
X138789572Y-91931471D01*
X138790426Y-90952823D01*
X138416702Y-90048343D01*
X137725297Y-89355730D01*
X136821471Y-88980428D01*
X135842823Y-88979574D01*
X134938343Y-89353298D01*
X134245730Y-90044703D01*
X133870428Y-90948529D01*
X133869574Y-91927177D01*
X126919575Y-91927177D01*
X126920426Y-90952823D01*
X126546702Y-90048343D01*
X125855297Y-89355730D01*
X124951471Y-88980428D01*
X123972823Y-88979574D01*
X123068343Y-89353298D01*
X122375730Y-90044703D01*
X122000428Y-90948529D01*
X121999574Y-91927177D01*
X121009575Y-91927177D01*
X121010426Y-90952823D01*
X120636702Y-90048343D01*
X119945297Y-89355730D01*
X119041471Y-88980428D01*
X118062823Y-88979574D01*
X117158343Y-89353298D01*
X116465730Y-90044703D01*
X116090428Y-90948529D01*
X116089574Y-91927177D01*
X109139575Y-91927177D01*
X109140426Y-90952823D01*
X108766702Y-90048343D01*
X108075297Y-89355730D01*
X107171471Y-88980428D01*
X106192823Y-88979574D01*
X105288343Y-89353298D01*
X104595730Y-90044703D01*
X104220428Y-90948529D01*
X104219574Y-91927177D01*
X90397440Y-91927177D01*
X90397440Y-91860000D01*
X90353162Y-91624683D01*
X90214090Y-91408559D01*
X90001890Y-91263569D01*
X89750000Y-91212560D01*
X88050000Y-91212560D01*
X87814683Y-91256838D01*
X87598559Y-91395910D01*
X87453569Y-91608110D01*
X87439914Y-91675541D01*
X87410054Y-91630853D01*
X86928285Y-91308946D01*
X86360000Y-91195907D01*
X85791715Y-91308946D01*
X85309946Y-91630853D01*
X85090000Y-91960026D01*
X84870054Y-91630853D01*
X84580000Y-91437046D01*
X84580000Y-90654802D01*
X85040997Y-90193805D01*
X85045910Y-90201441D01*
X85258110Y-90346431D01*
X85510000Y-90397440D01*
X87210000Y-90397440D01*
X87445317Y-90353162D01*
X87661441Y-90214090D01*
X87806431Y-90001890D01*
X87820086Y-89934459D01*
X87849946Y-89979147D01*
X88331715Y-90301054D01*
X88900000Y-90414093D01*
X89468285Y-90301054D01*
X89950054Y-89979147D01*
X90170000Y-89649974D01*
X90389946Y-89979147D01*
X90871715Y-90301054D01*
X91440000Y-90414093D01*
X92008285Y-90301054D01*
X92490054Y-89979147D01*
X92710000Y-89649974D01*
X92929946Y-89979147D01*
X93411715Y-90301054D01*
X93980000Y-90414093D01*
X94548285Y-90301054D01*
X95030054Y-89979147D01*
X95250000Y-89649974D01*
X95469946Y-89979147D01*
X95951715Y-90301054D01*
X96520000Y-90414093D01*
X97088285Y-90301054D01*
X97570054Y-89979147D01*
X97891961Y-89497378D01*
X98005000Y-88929093D01*
X98005000Y-88870907D01*
X97891961Y-88302622D01*
X97723165Y-88050000D01*
X99340560Y-88050000D01*
X99340560Y-89750000D01*
X99384838Y-89985317D01*
X99523910Y-90201441D01*
X99736110Y-90346431D01*
X99988000Y-90397440D01*
X101688000Y-90397440D01*
X101923317Y-90353162D01*
X102139441Y-90214090D01*
X102284431Y-90001890D01*
X102298086Y-89934459D01*
X102327946Y-89979147D01*
X102809715Y-90301054D01*
X103378000Y-90414093D01*
X103946285Y-90301054D01*
X104428054Y-89979147D01*
X104749961Y-89497378D01*
X104863000Y-88929093D01*
X104863000Y-88870907D01*
X104749961Y-88302622D01*
X104594624Y-88070143D01*
X138493115Y-88070143D01*
X138830758Y-88887300D01*
X139455411Y-89513045D01*
X140271978Y-89852113D01*
X141156143Y-89852885D01*
X141973300Y-89515242D01*
X142599045Y-88890589D01*
X142938113Y-88074022D01*
X142938885Y-87189857D01*
X142601242Y-86372700D01*
X141976589Y-85746955D01*
X141160022Y-85407887D01*
X140275857Y-85407115D01*
X139458700Y-85744758D01*
X138832955Y-86369411D01*
X138493887Y-87185978D01*
X138493115Y-88070143D01*
X104594624Y-88070143D01*
X104428054Y-87820853D01*
X103946285Y-87498946D01*
X103378000Y-87385907D01*
X102809715Y-87498946D01*
X102327946Y-87820853D01*
X102300150Y-87862452D01*
X102291162Y-87814683D01*
X102152090Y-87598559D01*
X101939890Y-87453569D01*
X101688000Y-87402560D01*
X99988000Y-87402560D01*
X99752683Y-87446838D01*
X99536559Y-87585910D01*
X99391569Y-87798110D01*
X99340560Y-88050000D01*
X97723165Y-88050000D01*
X97570054Y-87820853D01*
X97088285Y-87498946D01*
X96520000Y-87385907D01*
X95951715Y-87498946D01*
X95469946Y-87820853D01*
X95250000Y-88150026D01*
X95030054Y-87820853D01*
X94548285Y-87498946D01*
X93980000Y-87385907D01*
X93411715Y-87498946D01*
X92929946Y-87820853D01*
X92710000Y-88150026D01*
X92490054Y-87820853D01*
X92008285Y-87498946D01*
X91440000Y-87385907D01*
X90871715Y-87498946D01*
X90389946Y-87820853D01*
X90170000Y-88150026D01*
X89950054Y-87820853D01*
X89468285Y-87498946D01*
X88900000Y-87385907D01*
X88331715Y-87498946D01*
X87849946Y-87820853D01*
X87822150Y-87862452D01*
X87813162Y-87814683D01*
X87674090Y-87598559D01*
X87461890Y-87453569D01*
X87210000Y-87402560D01*
X85510000Y-87402560D01*
X85274683Y-87446838D01*
X85058559Y-87585910D01*
X84913569Y-87798110D01*
X84862560Y-88050000D01*
X84862560Y-88269080D01*
X84722599Y-88362599D01*
X83282599Y-89802599D01*
X83117852Y-90049161D01*
X83060000Y-90340000D01*
X83060000Y-91437046D01*
X82769946Y-91630853D01*
X82550000Y-91960026D01*
X82330054Y-91630853D01*
X81848285Y-91308946D01*
X81280000Y-91195907D01*
X80711715Y-91308946D01*
X80229946Y-91630853D01*
X80010000Y-91960026D01*
X79790054Y-91630853D01*
X79308285Y-91308946D01*
X78740000Y-91195907D01*
X78171715Y-91308946D01*
X77689946Y-91630853D01*
X77470000Y-91960026D01*
X77250054Y-91630853D01*
X76768285Y-91308946D01*
X76200000Y-91195907D01*
X75631715Y-91308946D01*
X75149946Y-91630853D01*
X74930000Y-91960026D01*
X74710054Y-91630853D01*
X74228285Y-91308946D01*
X73660000Y-91195907D01*
X73091715Y-91308946D01*
X72609946Y-91630853D01*
X72390000Y-91960026D01*
X72170054Y-91630853D01*
X71688285Y-91308946D01*
X71120000Y-91195907D01*
X70551715Y-91308946D01*
X70069946Y-91630853D01*
X69850000Y-91960026D01*
X69630054Y-91630853D01*
X69148285Y-91308946D01*
X68580000Y-91195907D01*
X68011715Y-91308946D01*
X67529946Y-91630853D01*
X67310000Y-91960026D01*
X67090054Y-91630853D01*
X66608285Y-91308946D01*
X66040000Y-91195907D01*
X65471715Y-91308946D01*
X64989946Y-91630853D01*
X64770000Y-91960026D01*
X64550054Y-91630853D01*
X64068285Y-91308946D01*
X63500000Y-91195907D01*
X62931715Y-91308946D01*
X62449946Y-91630853D01*
X62230000Y-91960026D01*
X62010054Y-91630853D01*
X61528285Y-91308946D01*
X60960000Y-91195907D01*
X60391715Y-91308946D01*
X59909946Y-91630853D01*
X59690000Y-91960026D01*
X59470054Y-91630853D01*
X58988285Y-91308946D01*
X58420000Y-91195907D01*
X57851715Y-91308946D01*
X57369946Y-91630853D01*
X57150000Y-91960026D01*
X56930054Y-91630853D01*
X56448285Y-91308946D01*
X55880000Y-91195907D01*
X55311715Y-91308946D01*
X54829946Y-91630853D01*
X54508039Y-92112622D01*
X54395000Y-92680907D01*
X53034000Y-92680907D01*
X53034000Y-88070143D01*
X53149115Y-88070143D01*
X53486758Y-88887300D01*
X54111411Y-89513045D01*
X54927978Y-89852113D01*
X55812143Y-89852885D01*
X56629300Y-89515242D01*
X57255045Y-88890589D01*
X57594113Y-88074022D01*
X57594885Y-87189857D01*
X57257242Y-86372700D01*
X56632589Y-85746955D01*
X55816022Y-85407887D01*
X54931857Y-85407115D01*
X54114700Y-85744758D01*
X53488955Y-86369411D01*
X53149887Y-87185978D01*
X53149115Y-88070143D01*
X53034000Y-88070143D01*
X53034000Y-85292000D01*
X143054000Y-85292000D01*
X143054000Y-125274000D01*
X143054000Y-125274000D01*
G37*
X143054000Y-125274000D02*
X53034000Y-125274000D01*
X53034000Y-123376143D01*
X53149115Y-123376143D01*
X53486758Y-124193300D01*
X54111411Y-124819045D01*
X54927978Y-125158113D01*
X55812143Y-125158885D01*
X56629300Y-124821242D01*
X57255045Y-124196589D01*
X57594113Y-123380022D01*
X57594885Y-122495857D01*
X57257242Y-121678700D01*
X56649605Y-121070000D01*
X87402560Y-121070000D01*
X87402560Y-122770000D01*
X87446838Y-123005317D01*
X87585910Y-123221441D01*
X87798110Y-123366431D01*
X88050000Y-123417440D01*
X89750000Y-123417440D01*
X89985317Y-123373162D01*
X90201441Y-123234090D01*
X90346431Y-123021890D01*
X90360086Y-122954459D01*
X90389946Y-122999147D01*
X90871715Y-123321054D01*
X91440000Y-123434093D01*
X92008285Y-123321054D01*
X92490054Y-122999147D01*
X92710000Y-122669974D01*
X92929946Y-122999147D01*
X93411715Y-123321054D01*
X93980000Y-123434093D01*
X94548285Y-123321054D01*
X95030054Y-122999147D01*
X95257702Y-122658447D01*
X95324817Y-122801358D01*
X95753076Y-123191645D01*
X96163110Y-123361476D01*
X96393000Y-123240155D01*
X96393000Y-122047000D01*
X96373000Y-122047000D01*
X96373000Y-121793000D01*
X96393000Y-121793000D01*
X96393000Y-120599845D01*
X96647000Y-120599845D01*
X96647000Y-121793000D01*
X96667000Y-121793000D01*
X96667000Y-122047000D01*
X96647000Y-122047000D01*
X96647000Y-123240155D01*
X96876890Y-123361476D01*
X97286924Y-123191645D01*
X97715183Y-122801358D01*
X97782298Y-122658447D01*
X98009946Y-122999147D01*
X98491715Y-123321054D01*
X99060000Y-123434093D01*
X99351334Y-123376143D01*
X138493115Y-123376143D01*
X138830758Y-124193300D01*
X139455411Y-124819045D01*
X140271978Y-125158113D01*
X141156143Y-125158885D01*
X141973300Y-124821242D01*
X142599045Y-124196589D01*
X142938113Y-123380022D01*
X142938885Y-122495857D01*
X142601242Y-121678700D01*
X141976589Y-121052955D01*
X141160022Y-120713887D01*
X140275857Y-120713115D01*
X139458700Y-121050758D01*
X138832955Y-121675411D01*
X138493887Y-122491978D01*
X138493115Y-123376143D01*
X99351334Y-123376143D01*
X99628285Y-123321054D01*
X100110054Y-122999147D01*
X100431961Y-122517378D01*
X100545000Y-121949093D01*
X100545000Y-121890907D01*
X100431961Y-121322622D01*
X100110054Y-120840853D01*
X99628285Y-120518946D01*
X99060000Y-120405907D01*
X98491715Y-120518946D01*
X98009946Y-120840853D01*
X97782298Y-121181553D01*
X97715183Y-121038642D01*
X97286924Y-120648355D01*
X96876890Y-120478524D01*
X96647000Y-120599845D01*
X96393000Y-120599845D01*
X96163110Y-120478524D01*
X95753076Y-120648355D01*
X95324817Y-121038642D01*
X95257702Y-121181553D01*
X95030054Y-120840853D01*
X94548285Y-120518946D01*
X93980000Y-120405907D01*
X93411715Y-120518946D01*
X92929946Y-120840853D01*
X92710000Y-121170026D01*
X92490054Y-120840853D01*
X92008285Y-120518946D01*
X91440000Y-120405907D01*
X90871715Y-120518946D01*
X90389946Y-120840853D01*
X90362150Y-120882452D01*
X90353162Y-120834683D01*
X90214090Y-120618559D01*
X90001890Y-120473569D01*
X89750000Y-120422560D01*
X88050000Y-120422560D01*
X87814683Y-120466838D01*
X87598559Y-120605910D01*
X87453569Y-120818110D01*
X87402560Y-121070000D01*
X56649605Y-121070000D01*
X56632589Y-121052955D01*
X55816022Y-120713887D01*
X54931857Y-120713115D01*
X54114700Y-121050758D01*
X53488955Y-121675411D01*
X53149887Y-122491978D01*
X53149115Y-123376143D01*
X53034000Y-123376143D01*
X53034000Y-119867177D01*
X104219574Y-119867177D01*
X104593298Y-120771657D01*
X105284703Y-121464270D01*
X106188529Y-121839572D01*
X107167177Y-121840426D01*
X108071657Y-121466702D01*
X108764270Y-120775297D01*
X109139572Y-119871471D01*
X109139575Y-119867177D01*
X116089574Y-119867177D01*
X116463298Y-120771657D01*
X117154703Y-121464270D01*
X118058529Y-121839572D01*
X119037177Y-121840426D01*
X119941657Y-121466702D01*
X120634270Y-120775297D01*
X121009572Y-119871471D01*
X121009575Y-119867177D01*
X121999574Y-119867177D01*
X122373298Y-120771657D01*
X123064703Y-121464270D01*
X123968529Y-121839572D01*
X124947177Y-121840426D01*
X125851657Y-121466702D01*
X126544270Y-120775297D01*
X126919572Y-119871471D01*
X126919575Y-119867177D01*
X133869574Y-119867177D01*
X134243298Y-120771657D01*
X134934703Y-121464270D01*
X135838529Y-121839572D01*
X136817177Y-121840426D01*
X137721657Y-121466702D01*
X138414270Y-120775297D01*
X138789572Y-119871471D01*
X138790426Y-118892823D01*
X138416702Y-117988343D01*
X137725297Y-117295730D01*
X136821471Y-116920428D01*
X135842823Y-116919574D01*
X134938343Y-117293298D01*
X134245730Y-117984703D01*
X133870428Y-118888529D01*
X133869574Y-119867177D01*
X126919575Y-119867177D01*
X126920426Y-118892823D01*
X126546702Y-117988343D01*
X125855297Y-117295730D01*
X124951471Y-116920428D01*
X123972823Y-116919574D01*
X123068343Y-117293298D01*
X122375730Y-117984703D01*
X122000428Y-118888529D01*
X121999574Y-119867177D01*
X121009575Y-119867177D01*
X121010426Y-118892823D01*
X120636702Y-117988343D01*
X119945297Y-117295730D01*
X119041471Y-116920428D01*
X118062823Y-116919574D01*
X117158343Y-117293298D01*
X116465730Y-117984703D01*
X116090428Y-118888529D01*
X116089574Y-119867177D01*
X109139575Y-119867177D01*
X109140426Y-118892823D01*
X108766702Y-117988343D01*
X108075297Y-117295730D01*
X107171471Y-116920428D01*
X106192823Y-116919574D01*
X105288343Y-117293298D01*
X104595730Y-117984703D01*
X104220428Y-118888529D01*
X104219574Y-119867177D01*
X53034000Y-119867177D01*
X53034000Y-119198847D01*
X57764758Y-119198847D01*
X57852637Y-119456575D01*
X58430471Y-119668395D01*
X59045380Y-119642964D01*
X59495363Y-119456575D01*
X59583242Y-119198847D01*
X58674000Y-118289605D01*
X57764758Y-119198847D01*
X53034000Y-119198847D01*
X53034000Y-117866471D01*
X57115605Y-117866471D01*
X57141036Y-118481380D01*
X57327425Y-118931363D01*
X57585153Y-119019242D01*
X58494395Y-118110000D01*
X58853605Y-118110000D01*
X59762847Y-119019242D01*
X60020575Y-118931363D01*
X60232395Y-118353529D01*
X60206964Y-117738620D01*
X60020575Y-117288637D01*
X59762847Y-117200758D01*
X58853605Y-118110000D01*
X58494395Y-118110000D01*
X57585153Y-117200758D01*
X57327425Y-117288637D01*
X57115605Y-117866471D01*
X53034000Y-117866471D01*
X53034000Y-117021153D01*
X57764758Y-117021153D01*
X58674000Y-117930395D01*
X59583242Y-117021153D01*
X59495363Y-116763425D01*
X58917529Y-116551605D01*
X58302620Y-116577036D01*
X57852637Y-116763425D01*
X57764758Y-117021153D01*
X53034000Y-117021153D01*
X53034000Y-115246000D01*
X81610560Y-115246000D01*
X81610560Y-116846000D01*
X81654838Y-117081317D01*
X81793910Y-117297441D01*
X82006110Y-117442431D01*
X82258000Y-117493440D01*
X83858000Y-117493440D01*
X84093317Y-117449162D01*
X84309441Y-117310090D01*
X84397644Y-117181000D01*
X87814982Y-117181000D01*
X87889910Y-117297441D01*
X88102110Y-117442431D01*
X88354000Y-117493440D01*
X89954000Y-117493440D01*
X90189317Y-117449162D01*
X90405441Y-117310090D01*
X90550431Y-117097890D01*
X90601440Y-116846000D01*
X90601440Y-115493800D01*
X92465907Y-115493800D01*
X92578946Y-116062085D01*
X92900853Y-116543854D01*
X93382622Y-116865761D01*
X93950907Y-116978800D01*
X94009093Y-116978800D01*
X94577378Y-116865761D01*
X95059147Y-116543854D01*
X95381054Y-116062085D01*
X95494093Y-115493800D01*
X95381054Y-114925515D01*
X95059147Y-114443746D01*
X95017548Y-114415950D01*
X95065317Y-114406962D01*
X95281441Y-114267890D01*
X95426431Y-114055690D01*
X95477440Y-113803800D01*
X95477440Y-112924707D01*
X97575000Y-112924707D01*
X97575000Y-112982893D01*
X97688039Y-113551178D01*
X98009946Y-114032947D01*
X98295578Y-114223800D01*
X98009946Y-114414653D01*
X97688039Y-114896422D01*
X97575000Y-115464707D01*
X97575000Y-115522893D01*
X97688039Y-116091178D01*
X98009946Y-116572947D01*
X98491715Y-116894854D01*
X99060000Y-117007893D01*
X99628285Y-116894854D01*
X100110054Y-116572947D01*
X100330000Y-116243774D01*
X100549946Y-116572947D01*
X101031715Y-116894854D01*
X101600000Y-117007893D01*
X102168285Y-116894854D01*
X102650054Y-116572947D01*
X102971961Y-116091178D01*
X103085000Y-115522893D01*
X103085000Y-115464707D01*
X102971961Y-114896422D01*
X102650054Y-114414653D01*
X102648821Y-114413829D01*
X102685317Y-114406962D01*
X102901441Y-114267890D01*
X103046431Y-114055690D01*
X103097440Y-113803800D01*
X103097440Y-113304285D01*
X108054760Y-113304285D01*
X108265169Y-113813515D01*
X108654436Y-114203461D01*
X109163298Y-114414759D01*
X109714285Y-114415240D01*
X110223515Y-114204831D01*
X110613461Y-113815564D01*
X110709976Y-113583130D01*
X110805169Y-113813515D01*
X111045000Y-114053764D01*
X111045000Y-114090660D01*
X111079000Y-114261589D01*
X111079000Y-115630829D01*
X110979180Y-115871223D01*
X110978821Y-116282971D01*
X111136058Y-116663515D01*
X111426954Y-116954919D01*
X111807223Y-117112820D01*
X112218971Y-117113179D01*
X112599515Y-116955942D01*
X112890919Y-116665046D01*
X113048820Y-116284777D01*
X113049179Y-115873029D01*
X112949000Y-115630576D01*
X112949000Y-114124660D01*
X112931576Y-114037063D01*
X112967183Y-114001517D01*
X113728088Y-114001517D01*
X113796077Y-114242460D01*
X114315171Y-114427201D01*
X114865448Y-114399230D01*
X115243923Y-114242460D01*
X115311912Y-114001517D01*
X114520000Y-113209605D01*
X113728088Y-114001517D01*
X112967183Y-114001517D01*
X113153461Y-113815564D01*
X113243377Y-113599021D01*
X113307540Y-113753923D01*
X113548483Y-113821912D01*
X114340395Y-113030000D01*
X113548483Y-112238088D01*
X113307540Y-112306077D01*
X113248268Y-112472621D01*
X113154831Y-112246485D01*
X112967157Y-112058483D01*
X113728088Y-112058483D01*
X114520000Y-112850395D01*
X115311912Y-112058483D01*
X115243923Y-111817540D01*
X114724829Y-111632799D01*
X114174552Y-111660770D01*
X113796077Y-111817540D01*
X113728088Y-112058483D01*
X112967157Y-112058483D01*
X112765564Y-111856539D01*
X112256702Y-111645241D01*
X111705715Y-111644760D01*
X111196485Y-111855169D01*
X110806539Y-112244436D01*
X110710024Y-112476870D01*
X110614831Y-112246485D01*
X110225564Y-111856539D01*
X109716702Y-111645241D01*
X109165715Y-111644760D01*
X108656485Y-111855169D01*
X108266539Y-112244436D01*
X108055241Y-112753298D01*
X108054760Y-113304285D01*
X103097440Y-113304285D01*
X103097440Y-112103800D01*
X103053162Y-111868483D01*
X102914090Y-111652359D01*
X102701890Y-111507369D01*
X102450000Y-111456360D01*
X100750000Y-111456360D01*
X100514683Y-111500638D01*
X100298559Y-111639710D01*
X100153569Y-111851910D01*
X100139914Y-111919341D01*
X100110054Y-111874653D01*
X99628285Y-111552746D01*
X99060000Y-111439707D01*
X98491715Y-111552746D01*
X98009946Y-111874653D01*
X97688039Y-112356422D01*
X97575000Y-112924707D01*
X95477440Y-112924707D01*
X95477440Y-112103800D01*
X95433162Y-111868483D01*
X95294090Y-111652359D01*
X95081890Y-111507369D01*
X94830000Y-111456360D01*
X93130000Y-111456360D01*
X92894683Y-111500638D01*
X92678559Y-111639710D01*
X92533569Y-111851910D01*
X92482560Y-112103800D01*
X92482560Y-113803800D01*
X92526838Y-114039117D01*
X92665910Y-114255241D01*
X92878110Y-114400231D01*
X92945541Y-114413886D01*
X92900853Y-114443746D01*
X92578946Y-114925515D01*
X92465907Y-115493800D01*
X90601440Y-115493800D01*
X90601440Y-115246000D01*
X90557162Y-115010683D01*
X90418090Y-114794559D01*
X90411452Y-114790023D01*
X90600965Y-114262777D01*
X90573778Y-113692546D01*
X90407864Y-113291995D01*
X90161745Y-113217861D01*
X89333605Y-114046000D01*
X89347748Y-114060142D01*
X89168143Y-114239748D01*
X89154000Y-114225605D01*
X89139858Y-114239748D01*
X88960252Y-114060142D01*
X88974395Y-114046000D01*
X88146255Y-113217861D01*
X87900136Y-113291995D01*
X87707035Y-113829223D01*
X87734222Y-114399454D01*
X87896384Y-114790947D01*
X87814356Y-114911000D01*
X84397018Y-114911000D01*
X84322090Y-114794559D01*
X84315452Y-114790023D01*
X84504965Y-114262777D01*
X84477778Y-113692546D01*
X84311864Y-113291995D01*
X84065745Y-113217861D01*
X83237605Y-114046000D01*
X83251748Y-114060142D01*
X83072143Y-114239748D01*
X83058000Y-114225605D01*
X83043858Y-114239748D01*
X82864252Y-114060142D01*
X82878395Y-114046000D01*
X82050255Y-113217861D01*
X81804136Y-113291995D01*
X81611035Y-113829223D01*
X81638222Y-114399454D01*
X81800384Y-114790947D01*
X81661569Y-114994110D01*
X81610560Y-115246000D01*
X53034000Y-115246000D01*
X53034000Y-113416367D01*
X57126732Y-113416367D01*
X57361752Y-113985161D01*
X57796550Y-114420718D01*
X58364933Y-114656731D01*
X58980367Y-114657268D01*
X59549161Y-114422248D01*
X59984718Y-113987450D01*
X60220731Y-113419067D01*
X60221063Y-113038255D01*
X82229861Y-113038255D01*
X83058000Y-113866395D01*
X83886139Y-113038255D01*
X88325861Y-113038255D01*
X89154000Y-113866395D01*
X89982139Y-113038255D01*
X89908005Y-112792136D01*
X89370777Y-112599035D01*
X88800546Y-112626222D01*
X88399995Y-112792136D01*
X88325861Y-113038255D01*
X83886139Y-113038255D01*
X83812005Y-112792136D01*
X83274777Y-112599035D01*
X82704546Y-112626222D01*
X82303995Y-112792136D01*
X82229861Y-113038255D01*
X60221063Y-113038255D01*
X60221268Y-112803633D01*
X59986248Y-112234839D01*
X59551450Y-111799282D01*
X58983067Y-111563269D01*
X58367633Y-111562732D01*
X57798839Y-111797752D01*
X57363282Y-112232550D01*
X57127269Y-112800933D01*
X57126732Y-113416367D01*
X53034000Y-113416367D01*
X53034000Y-108235750D01*
X54395000Y-108235750D01*
X54395000Y-108926309D01*
X54491673Y-109159698D01*
X54670301Y-109338327D01*
X54903690Y-109435000D01*
X55594250Y-109435000D01*
X55753000Y-109276250D01*
X55753000Y-108077000D01*
X54553750Y-108077000D01*
X54395000Y-108235750D01*
X53034000Y-108235750D01*
X53034000Y-106973691D01*
X54395000Y-106973691D01*
X54395000Y-107664250D01*
X54553750Y-107823000D01*
X55753000Y-107823000D01*
X55753000Y-106623750D01*
X56007000Y-106623750D01*
X56007000Y-107823000D01*
X56027000Y-107823000D01*
X56027000Y-108077000D01*
X56007000Y-108077000D01*
X56007000Y-109276250D01*
X56165750Y-109435000D01*
X56856310Y-109435000D01*
X57089699Y-109338327D01*
X57268327Y-109159698D01*
X57340597Y-108985223D01*
X57369946Y-109029147D01*
X57851715Y-109351054D01*
X58420000Y-109464093D01*
X58988285Y-109351054D01*
X59470054Y-109029147D01*
X59690000Y-108699974D01*
X59909946Y-109029147D01*
X60391715Y-109351054D01*
X60960000Y-109464093D01*
X61528285Y-109351054D01*
X62010054Y-109029147D01*
X62230000Y-108699974D01*
X62449946Y-109029147D01*
X62931715Y-109351054D01*
X63500000Y-109464093D01*
X64068285Y-109351054D01*
X64550054Y-109029147D01*
X64770000Y-108699974D01*
X64989946Y-109029147D01*
X65471715Y-109351054D01*
X66040000Y-109464093D01*
X66608285Y-109351054D01*
X67090054Y-109029147D01*
X67310000Y-108699974D01*
X67529946Y-109029147D01*
X68011715Y-109351054D01*
X68580000Y-109464093D01*
X69148285Y-109351054D01*
X69630054Y-109029147D01*
X69850000Y-108699974D01*
X70069946Y-109029147D01*
X70551715Y-109351054D01*
X71120000Y-109464093D01*
X71688285Y-109351054D01*
X72170054Y-109029147D01*
X72390000Y-108699974D01*
X72609946Y-109029147D01*
X73091715Y-109351054D01*
X73660000Y-109464093D01*
X74228285Y-109351054D01*
X74710054Y-109029147D01*
X74930000Y-108699974D01*
X75149946Y-109029147D01*
X75631715Y-109351054D01*
X76200000Y-109464093D01*
X76768285Y-109351054D01*
X77250054Y-109029147D01*
X77470000Y-108699974D01*
X77689946Y-109029147D01*
X78171715Y-109351054D01*
X78740000Y-109464093D01*
X79308285Y-109351054D01*
X79790054Y-109029147D01*
X80010000Y-108699974D01*
X80229946Y-109029147D01*
X80711715Y-109351054D01*
X81280000Y-109464093D01*
X81848285Y-109351054D01*
X82330054Y-109029147D01*
X82550000Y-108699974D01*
X82769946Y-109029147D01*
X83060000Y-109222954D01*
X83060000Y-109927537D01*
X83027808Y-109959673D01*
X82885162Y-110303201D01*
X82884838Y-110675167D01*
X83026883Y-111018943D01*
X83289673Y-111282192D01*
X83633201Y-111424838D01*
X84005167Y-111425162D01*
X84348943Y-111283117D01*
X84612192Y-111020327D01*
X84718510Y-110764285D01*
X106784760Y-110764285D01*
X106995169Y-111273515D01*
X107384436Y-111663461D01*
X107893298Y-111874759D01*
X108444285Y-111875240D01*
X108953515Y-111664831D01*
X109157183Y-111461517D01*
X109918088Y-111461517D01*
X109986077Y-111702460D01*
X110505171Y-111887201D01*
X111055448Y-111859230D01*
X111433923Y-111702460D01*
X111501912Y-111461517D01*
X110710000Y-110669605D01*
X109918088Y-111461517D01*
X109157183Y-111461517D01*
X109343461Y-111275564D01*
X109433377Y-111059021D01*
X109497540Y-111213923D01*
X109738483Y-111281912D01*
X110530395Y-110490000D01*
X110889605Y-110490000D01*
X111681517Y-111281912D01*
X111922460Y-111213923D01*
X111981732Y-111047379D01*
X112075169Y-111273515D01*
X112464436Y-111663461D01*
X112973298Y-111874759D01*
X113524285Y-111875240D01*
X114033515Y-111664831D01*
X114423461Y-111275564D01*
X114519976Y-111043130D01*
X114615169Y-111273515D01*
X115004436Y-111663461D01*
X115513298Y-111874759D01*
X115818167Y-111875025D01*
X115713569Y-112028110D01*
X115662560Y-112280000D01*
X115662560Y-112286353D01*
X115491517Y-112238088D01*
X114699605Y-113030000D01*
X115491517Y-113821912D01*
X115662560Y-113773647D01*
X115662560Y-113780000D01*
X115706838Y-114015317D01*
X115845910Y-114231441D01*
X116058110Y-114376431D01*
X116310000Y-114427440D01*
X117810000Y-114427440D01*
X118045317Y-114383162D01*
X118261441Y-114244090D01*
X118406431Y-114031890D01*
X118457440Y-113780000D01*
X118457440Y-113304285D01*
X125834760Y-113304285D01*
X126045169Y-113813515D01*
X126434436Y-114203461D01*
X126943298Y-114414759D01*
X127494285Y-114415240D01*
X128003515Y-114204831D01*
X128393461Y-113815564D01*
X128489976Y-113583130D01*
X128585169Y-113813515D01*
X128974436Y-114203461D01*
X129483298Y-114414759D01*
X130034285Y-114415240D01*
X130543515Y-114204831D01*
X130747183Y-114001517D01*
X131508088Y-114001517D01*
X131576077Y-114242460D01*
X132095171Y-114427201D01*
X132645448Y-114399230D01*
X133023923Y-114242460D01*
X133091912Y-114001517D01*
X132300000Y-113209605D01*
X131508088Y-114001517D01*
X130747183Y-114001517D01*
X130933461Y-113815564D01*
X131023377Y-113599021D01*
X131087540Y-113753923D01*
X131328483Y-113821912D01*
X132120395Y-113030000D01*
X131328483Y-112238088D01*
X131087540Y-112306077D01*
X131028268Y-112472621D01*
X130934831Y-112246485D01*
X130747157Y-112058483D01*
X131508088Y-112058483D01*
X132300000Y-112850395D01*
X133091912Y-112058483D01*
X133023923Y-111817540D01*
X132504829Y-111632799D01*
X131954552Y-111660770D01*
X131576077Y-111817540D01*
X131508088Y-112058483D01*
X130747157Y-112058483D01*
X130545564Y-111856539D01*
X130036702Y-111645241D01*
X129485715Y-111644760D01*
X128976485Y-111855169D01*
X128586539Y-112244436D01*
X128490024Y-112476870D01*
X128394831Y-112246485D01*
X128005564Y-111856539D01*
X127496702Y-111645241D01*
X126945715Y-111644760D01*
X126436485Y-111855169D01*
X126046539Y-112244436D01*
X125835241Y-112753298D01*
X125834760Y-113304285D01*
X118457440Y-113304285D01*
X118457440Y-112280000D01*
X118413162Y-112044683D01*
X118274090Y-111828559D01*
X118061890Y-111683569D01*
X117810000Y-111632560D01*
X116605842Y-111632560D01*
X116963461Y-111275564D01*
X117174759Y-110766702D01*
X117174761Y-110764285D01*
X124564760Y-110764285D01*
X124775169Y-111273515D01*
X125164436Y-111663461D01*
X125673298Y-111874759D01*
X126224285Y-111875240D01*
X126733515Y-111664831D01*
X126937183Y-111461517D01*
X127698088Y-111461517D01*
X127766077Y-111702460D01*
X128285171Y-111887201D01*
X128835448Y-111859230D01*
X129213923Y-111702460D01*
X129281912Y-111461517D01*
X128490000Y-110669605D01*
X127698088Y-111461517D01*
X126937183Y-111461517D01*
X127123461Y-111275564D01*
X127213377Y-111059021D01*
X127277540Y-111213923D01*
X127518483Y-111281912D01*
X128310395Y-110490000D01*
X128669605Y-110490000D01*
X129461517Y-111281912D01*
X129702460Y-111213923D01*
X129761732Y-111047379D01*
X129855169Y-111273515D01*
X130244436Y-111663461D01*
X130753298Y-111874759D01*
X131304285Y-111875240D01*
X131813515Y-111664831D01*
X132203461Y-111275564D01*
X132299976Y-111043130D01*
X132395169Y-111273515D01*
X132784436Y-111663461D01*
X133293298Y-111874759D01*
X133598167Y-111875025D01*
X133493569Y-112028110D01*
X133442560Y-112280000D01*
X133442560Y-112286353D01*
X133271517Y-112238088D01*
X132479605Y-113030000D01*
X133271517Y-113821912D01*
X133442560Y-113773647D01*
X133442560Y-113780000D01*
X133486838Y-114015317D01*
X133625910Y-114231441D01*
X133838110Y-114376431D01*
X134090000Y-114427440D01*
X135590000Y-114427440D01*
X135825317Y-114383162D01*
X136041441Y-114244090D01*
X136186431Y-114031890D01*
X136237440Y-113780000D01*
X136237440Y-112280000D01*
X136193162Y-112044683D01*
X136054090Y-111828559D01*
X135953751Y-111760000D01*
X138185907Y-111760000D01*
X138298946Y-112328285D01*
X138620853Y-112810054D01*
X138662452Y-112837850D01*
X138614683Y-112846838D01*
X138398559Y-112985910D01*
X138253569Y-113198110D01*
X138202560Y-113450000D01*
X138202560Y-115150000D01*
X138246838Y-115385317D01*
X138385910Y-115601441D01*
X138598110Y-115746431D01*
X138850000Y-115797440D01*
X140550000Y-115797440D01*
X140785317Y-115753162D01*
X141001441Y-115614090D01*
X141146431Y-115401890D01*
X141197440Y-115150000D01*
X141197440Y-113450000D01*
X141153162Y-113214683D01*
X141014090Y-112998559D01*
X140801890Y-112853569D01*
X140734459Y-112839914D01*
X140779147Y-112810054D01*
X141101054Y-112328285D01*
X141214093Y-111760000D01*
X141101054Y-111191715D01*
X140779147Y-110709946D01*
X140297378Y-110388039D01*
X139729093Y-110275000D01*
X139670907Y-110275000D01*
X139102622Y-110388039D01*
X138620853Y-110709946D01*
X138298946Y-111191715D01*
X138185907Y-111760000D01*
X135953751Y-111760000D01*
X135841890Y-111683569D01*
X135590000Y-111632560D01*
X134385842Y-111632560D01*
X134743461Y-111275564D01*
X134954759Y-110766702D01*
X134955240Y-110215715D01*
X134744831Y-109706485D01*
X134355564Y-109316539D01*
X133846702Y-109105241D01*
X133295715Y-109104760D01*
X132786485Y-109315169D01*
X132396539Y-109704436D01*
X132300024Y-109936870D01*
X132204831Y-109706485D01*
X131815564Y-109316539D01*
X131306702Y-109105241D01*
X130755715Y-109104760D01*
X130246485Y-109315169D01*
X129856539Y-109704436D01*
X129766623Y-109920979D01*
X129702460Y-109766077D01*
X129461517Y-109698088D01*
X128669605Y-110490000D01*
X128310395Y-110490000D01*
X127518483Y-109698088D01*
X127277540Y-109766077D01*
X127218268Y-109932621D01*
X127124831Y-109706485D01*
X126937157Y-109518483D01*
X127698088Y-109518483D01*
X128490000Y-110310395D01*
X129281912Y-109518483D01*
X129213923Y-109277540D01*
X128694829Y-109092799D01*
X128144552Y-109120770D01*
X127766077Y-109277540D01*
X127698088Y-109518483D01*
X126937157Y-109518483D01*
X126735564Y-109316539D01*
X126226702Y-109105241D01*
X125675715Y-109104760D01*
X125166485Y-109315169D01*
X124776539Y-109704436D01*
X124565241Y-110213298D01*
X124564760Y-110764285D01*
X117174761Y-110764285D01*
X117175240Y-110215715D01*
X116964831Y-109706485D01*
X116575564Y-109316539D01*
X116066702Y-109105241D01*
X115515715Y-109104760D01*
X115006485Y-109315169D01*
X114616539Y-109704436D01*
X114520024Y-109936870D01*
X114424831Y-109706485D01*
X114035564Y-109316539D01*
X113526702Y-109105241D01*
X112975715Y-109104760D01*
X112466485Y-109315169D01*
X112076539Y-109704436D01*
X111986623Y-109920979D01*
X111922460Y-109766077D01*
X111681517Y-109698088D01*
X110889605Y-110490000D01*
X110530395Y-110490000D01*
X109738483Y-109698088D01*
X109497540Y-109766077D01*
X109438268Y-109932621D01*
X109344831Y-109706485D01*
X109157157Y-109518483D01*
X109918088Y-109518483D01*
X110710000Y-110310395D01*
X111501912Y-109518483D01*
X111433923Y-109277540D01*
X110914829Y-109092799D01*
X110364552Y-109120770D01*
X109986077Y-109277540D01*
X109918088Y-109518483D01*
X109157157Y-109518483D01*
X108955564Y-109316539D01*
X108446702Y-109105241D01*
X107895715Y-109104760D01*
X107386485Y-109315169D01*
X106996539Y-109704436D01*
X106785241Y-110213298D01*
X106784760Y-110764285D01*
X84718510Y-110764285D01*
X84754838Y-110676799D01*
X84755162Y-110304833D01*
X84613117Y-109961057D01*
X84580000Y-109927882D01*
X84580000Y-109222954D01*
X84870054Y-109029147D01*
X85090000Y-108699974D01*
X85309946Y-109029147D01*
X85791715Y-109351054D01*
X86360000Y-109464093D01*
X86928285Y-109351054D01*
X87410054Y-109029147D01*
X87630000Y-108699974D01*
X87849946Y-109029147D01*
X88331715Y-109351054D01*
X88900000Y-109464093D01*
X89468285Y-109351054D01*
X89950054Y-109029147D01*
X90271961Y-108547378D01*
X90385000Y-107979093D01*
X90385000Y-107920907D01*
X90271961Y-107352622D01*
X89950054Y-106870853D01*
X89468285Y-106548946D01*
X88900000Y-106435907D01*
X88571096Y-106501330D01*
X88507942Y-106348485D01*
X88390000Y-106230337D01*
X88390000Y-105595167D01*
X91266838Y-105595167D01*
X91408883Y-105938943D01*
X91442000Y-105972118D01*
X91442000Y-106371537D01*
X91409808Y-106403673D01*
X91267162Y-106747201D01*
X91266838Y-107119167D01*
X91408883Y-107462943D01*
X91671673Y-107726192D01*
X92015201Y-107868838D01*
X92387167Y-107869162D01*
X92730943Y-107727117D01*
X92994192Y-107464327D01*
X93136838Y-107120799D01*
X93137162Y-106748833D01*
X92995117Y-106405057D01*
X92962000Y-106371882D01*
X92962000Y-105972463D01*
X92994192Y-105940327D01*
X93136838Y-105596799D01*
X93137162Y-105224833D01*
X92995117Y-104881057D01*
X92732327Y-104617808D01*
X92388799Y-104475162D01*
X92016833Y-104474838D01*
X91673057Y-104616883D01*
X91409808Y-104879673D01*
X91267162Y-105223201D01*
X91266838Y-105595167D01*
X88390000Y-105595167D01*
X88390000Y-104617804D01*
X89046402Y-103961402D01*
X89211149Y-103714840D01*
X89269001Y-103424001D01*
X89269001Y-102733001D01*
X89251011Y-102642560D01*
X89211149Y-102442161D01*
X89046402Y-102195600D01*
X88127969Y-101277167D01*
X96054835Y-101277167D01*
X96196880Y-101620943D01*
X96229997Y-101654118D01*
X96229997Y-102815537D01*
X96197805Y-102847673D01*
X96055159Y-103191201D01*
X96054835Y-103563167D01*
X96196880Y-103906943D01*
X96459670Y-104170192D01*
X96803198Y-104312838D01*
X97175164Y-104313162D01*
X97390103Y-104224351D01*
X97603201Y-104312838D01*
X97975167Y-104313162D01*
X98240229Y-104203641D01*
X98503204Y-104312838D01*
X98875170Y-104313162D01*
X99218946Y-104171117D01*
X99482195Y-103908327D01*
X99624841Y-103564799D01*
X99625165Y-103192833D01*
X99483120Y-102849057D01*
X99450003Y-102815882D01*
X99450003Y-100500460D01*
X99482195Y-100468324D01*
X99624841Y-100124796D01*
X99625165Y-99752830D01*
X99483120Y-99409054D01*
X99220330Y-99145805D01*
X98876802Y-99003159D01*
X98504836Y-99002835D01*
X98355144Y-99064686D01*
X98320327Y-99029808D01*
X97976799Y-98887162D01*
X97604833Y-98886838D01*
X97261057Y-99028883D01*
X96997808Y-99291673D01*
X96855162Y-99635201D01*
X96854838Y-100007167D01*
X96916721Y-100156935D01*
X96804830Y-100156838D01*
X96461054Y-100298883D01*
X96197805Y-100561673D01*
X96055159Y-100905201D01*
X96054835Y-101277167D01*
X88127969Y-101277167D01*
X87621937Y-100771135D01*
X87621937Y-100519698D01*
X87738856Y-100402983D01*
X87896757Y-100022714D01*
X87897116Y-99610966D01*
X87739879Y-99230422D01*
X87448983Y-98939018D01*
X87068714Y-98781117D01*
X86656966Y-98780758D01*
X86276422Y-98937995D01*
X85985018Y-99228891D01*
X85827117Y-99609160D01*
X85826845Y-99920621D01*
X85784799Y-99903162D01*
X85412833Y-99902838D01*
X85263098Y-99964707D01*
X85263162Y-99890833D01*
X85121117Y-99547057D01*
X84858327Y-99283808D01*
X84514799Y-99141162D01*
X84142833Y-99140838D01*
X83799057Y-99282883D01*
X83535808Y-99545673D01*
X83393162Y-99889201D01*
X83393079Y-99984549D01*
X83325853Y-100085160D01*
X83268001Y-100375999D01*
X83268001Y-101436796D01*
X83244799Y-101427162D01*
X82872833Y-101426838D01*
X82529057Y-101568883D01*
X82265808Y-101831673D01*
X82123162Y-102175201D01*
X82122838Y-102547167D01*
X82264883Y-102890943D01*
X82527673Y-103154192D01*
X82871201Y-103296838D01*
X83088489Y-103297027D01*
X84691769Y-104900307D01*
X84663162Y-104969201D01*
X84662838Y-105341167D01*
X84804883Y-105684943D01*
X85067673Y-105948192D01*
X85411201Y-106090838D01*
X85783167Y-106091162D01*
X86126943Y-105949117D01*
X86390192Y-105686327D01*
X86532838Y-105342799D01*
X86532850Y-105329151D01*
X86545167Y-105329162D01*
X86870000Y-105194944D01*
X86870000Y-106230239D01*
X86753081Y-106346954D01*
X86688973Y-106501344D01*
X86360000Y-106435907D01*
X85791715Y-106548946D01*
X85309946Y-106870853D01*
X85090000Y-107200026D01*
X84870054Y-106870853D01*
X84388285Y-106548946D01*
X83820000Y-106435907D01*
X83251715Y-106548946D01*
X82769946Y-106870853D01*
X82550000Y-107200026D01*
X82330054Y-106870853D01*
X81848285Y-106548946D01*
X81280000Y-106435907D01*
X80711715Y-106548946D01*
X80229946Y-106870853D01*
X80010000Y-107200026D01*
X79790054Y-106870853D01*
X79308285Y-106548946D01*
X78740000Y-106435907D01*
X78171715Y-106548946D01*
X77689946Y-106870853D01*
X77470000Y-107200026D01*
X77250054Y-106870853D01*
X76768285Y-106548946D01*
X76200000Y-106435907D01*
X75631715Y-106548946D01*
X75149946Y-106870853D01*
X74930000Y-107200026D01*
X74710054Y-106870853D01*
X74228285Y-106548946D01*
X73660000Y-106435907D01*
X73091715Y-106548946D01*
X72609946Y-106870853D01*
X72390000Y-107200026D01*
X72170054Y-106870853D01*
X71688285Y-106548946D01*
X71120000Y-106435907D01*
X70551715Y-106548946D01*
X70069946Y-106870853D01*
X69850000Y-107200026D01*
X69630054Y-106870853D01*
X69148285Y-106548946D01*
X68580000Y-106435907D01*
X68011715Y-106548946D01*
X67529946Y-106870853D01*
X67310000Y-107200026D01*
X67090054Y-106870853D01*
X66608285Y-106548946D01*
X66040000Y-106435907D01*
X65471715Y-106548946D01*
X64989946Y-106870853D01*
X64770000Y-107200026D01*
X64550054Y-106870853D01*
X64068285Y-106548946D01*
X63500000Y-106435907D01*
X62931715Y-106548946D01*
X62449946Y-106870853D01*
X62230000Y-107200026D01*
X62010054Y-106870853D01*
X61528285Y-106548946D01*
X60960000Y-106435907D01*
X60391715Y-106548946D01*
X59909946Y-106870853D01*
X59690000Y-107200026D01*
X59470054Y-106870853D01*
X58988285Y-106548946D01*
X58420000Y-106435907D01*
X57851715Y-106548946D01*
X57369946Y-106870853D01*
X57340597Y-106914777D01*
X57268327Y-106740302D01*
X57089699Y-106561673D01*
X56856310Y-106465000D01*
X56165750Y-106465000D01*
X56007000Y-106623750D01*
X55753000Y-106623750D01*
X55594250Y-106465000D01*
X54903690Y-106465000D01*
X54670301Y-106561673D01*
X54491673Y-106740302D01*
X54395000Y-106973691D01*
X53034000Y-106973691D01*
X53034000Y-97213167D01*
X89234838Y-97213167D01*
X89376883Y-97556943D01*
X89639673Y-97820192D01*
X89983201Y-97962838D01*
X90355167Y-97963162D01*
X90698943Y-97821117D01*
X90962192Y-97558327D01*
X91006585Y-97451417D01*
X91418002Y-97040000D01*
X106772560Y-97040000D01*
X106772560Y-98540000D01*
X106816838Y-98775317D01*
X106955910Y-98991441D01*
X107168110Y-99136431D01*
X107420000Y-99187440D01*
X108624158Y-99187440D01*
X108266539Y-99544436D01*
X108055241Y-100053298D01*
X108054760Y-100604285D01*
X108265169Y-101113515D01*
X108654436Y-101503461D01*
X109163298Y-101714759D01*
X109714285Y-101715240D01*
X110223515Y-101504831D01*
X110613461Y-101115564D01*
X110709976Y-100883130D01*
X110805169Y-101113515D01*
X111194436Y-101503461D01*
X111703298Y-101714759D01*
X112254285Y-101715240D01*
X112763515Y-101504831D01*
X112967183Y-101301517D01*
X113728088Y-101301517D01*
X113796077Y-101542460D01*
X114315171Y-101727201D01*
X114865448Y-101699230D01*
X115243923Y-101542460D01*
X115311912Y-101301517D01*
X114520000Y-100509605D01*
X113728088Y-101301517D01*
X112967183Y-101301517D01*
X113153461Y-101115564D01*
X113243377Y-100899021D01*
X113307540Y-101053923D01*
X113548483Y-101121912D01*
X114340395Y-100330000D01*
X114699605Y-100330000D01*
X115491517Y-101121912D01*
X115732460Y-101053923D01*
X115791732Y-100887379D01*
X115885169Y-101113515D01*
X116274436Y-101503461D01*
X116783298Y-101714759D01*
X117334285Y-101715240D01*
X117843515Y-101504831D01*
X118233461Y-101115564D01*
X118444759Y-100606702D01*
X118445240Y-100055715D01*
X118234831Y-99546485D01*
X117845564Y-99156539D01*
X117336702Y-98945241D01*
X116785715Y-98944760D01*
X116276485Y-99155169D01*
X115886539Y-99544436D01*
X115796623Y-99760979D01*
X115732460Y-99606077D01*
X115491517Y-99538088D01*
X114699605Y-100330000D01*
X114340395Y-100330000D01*
X113548483Y-99538088D01*
X113307540Y-99606077D01*
X113248268Y-99772621D01*
X113154831Y-99546485D01*
X112967157Y-99358483D01*
X113728088Y-99358483D01*
X114520000Y-100150395D01*
X115311912Y-99358483D01*
X115243923Y-99117540D01*
X114724829Y-98932799D01*
X114174552Y-98960770D01*
X113796077Y-99117540D01*
X113728088Y-99358483D01*
X112967157Y-99358483D01*
X112765564Y-99156539D01*
X112256702Y-98945241D01*
X111705715Y-98944760D01*
X111196485Y-99155169D01*
X110806539Y-99544436D01*
X110710024Y-99776870D01*
X110614831Y-99546485D01*
X110225564Y-99156539D01*
X109716702Y-98945241D01*
X109411833Y-98944975D01*
X109516431Y-98791890D01*
X109522581Y-98761517D01*
X109918088Y-98761517D01*
X109986077Y-99002460D01*
X110505171Y-99187201D01*
X111055448Y-99159230D01*
X111433923Y-99002460D01*
X111501912Y-98761517D01*
X110710000Y-97969605D01*
X109918088Y-98761517D01*
X109522581Y-98761517D01*
X109567440Y-98540000D01*
X109567440Y-98533647D01*
X109738483Y-98581912D01*
X110530395Y-97790000D01*
X110889605Y-97790000D01*
X111681517Y-98581912D01*
X111922460Y-98513923D01*
X111981732Y-98347379D01*
X112075169Y-98573515D01*
X112464436Y-98963461D01*
X112973298Y-99174759D01*
X113524285Y-99175240D01*
X114033515Y-98964831D01*
X114423461Y-98575564D01*
X114519976Y-98343130D01*
X114615169Y-98573515D01*
X115004436Y-98963461D01*
X115513298Y-99174759D01*
X116064285Y-99175240D01*
X116573515Y-98964831D01*
X116963461Y-98575564D01*
X117174759Y-98066702D01*
X117175240Y-97515715D01*
X116978680Y-97040000D01*
X124552560Y-97040000D01*
X124552560Y-98540000D01*
X124596838Y-98775317D01*
X124735910Y-98991441D01*
X124948110Y-99136431D01*
X125200000Y-99187440D01*
X126404158Y-99187440D01*
X126046539Y-99544436D01*
X125835241Y-100053298D01*
X125834760Y-100604285D01*
X126045169Y-101113515D01*
X126434436Y-101503461D01*
X126943298Y-101714759D01*
X127494285Y-101715240D01*
X128003515Y-101504831D01*
X128393461Y-101115564D01*
X128489976Y-100883130D01*
X128585169Y-101113515D01*
X128825000Y-101353764D01*
X128825000Y-101390660D01*
X128896173Y-101748469D01*
X129098855Y-102051805D01*
X131848195Y-104801145D01*
X132151531Y-105003827D01*
X132509340Y-105075000D01*
X133138554Y-105075000D01*
X133166838Y-105225317D01*
X133287015Y-105412077D01*
X133173569Y-105578110D01*
X133122560Y-105830000D01*
X133122560Y-107530000D01*
X133166838Y-107765317D01*
X133305910Y-107981441D01*
X133518110Y-108126431D01*
X133770000Y-108177440D01*
X135470000Y-108177440D01*
X135705317Y-108133162D01*
X135921441Y-107994090D01*
X136066431Y-107781890D01*
X136080086Y-107714459D01*
X136109946Y-107759147D01*
X136591715Y-108081054D01*
X137160000Y-108194093D01*
X137728285Y-108081054D01*
X138210054Y-107759147D01*
X138531961Y-107277378D01*
X138645000Y-106709093D01*
X138645000Y-106650907D01*
X138531961Y-106082622D01*
X138210054Y-105600853D01*
X137924422Y-105410000D01*
X138210054Y-105219147D01*
X138531961Y-104737378D01*
X138645000Y-104169093D01*
X138645000Y-104110907D01*
X138531961Y-103542622D01*
X138210054Y-103060853D01*
X137728285Y-102738946D01*
X137160000Y-102625907D01*
X136591715Y-102738946D01*
X136109946Y-103060853D01*
X136082150Y-103102452D01*
X136073162Y-103054683D01*
X135934090Y-102838559D01*
X135721890Y-102693569D01*
X135470000Y-102642560D01*
X133770000Y-102642560D01*
X133534683Y-102686838D01*
X133318559Y-102825910D01*
X133173569Y-103038110D01*
X133139773Y-103205000D01*
X132896630Y-103205000D01*
X130993147Y-101301517D01*
X131508088Y-101301517D01*
X131576077Y-101542460D01*
X132095171Y-101727201D01*
X132645448Y-101699230D01*
X133023923Y-101542460D01*
X133091912Y-101301517D01*
X132300000Y-100509605D01*
X131508088Y-101301517D01*
X130993147Y-101301517D01*
X130870272Y-101178642D01*
X130933461Y-101115564D01*
X131023377Y-100899021D01*
X131087540Y-101053923D01*
X131328483Y-101121912D01*
X132120395Y-100330000D01*
X132479605Y-100330000D01*
X133271517Y-101121912D01*
X133512460Y-101053923D01*
X133571732Y-100887379D01*
X133665169Y-101113515D01*
X134054436Y-101503461D01*
X134563298Y-101714759D01*
X135114285Y-101715240D01*
X135623515Y-101504831D01*
X136013461Y-101115564D01*
X136224759Y-100606702D01*
X136225240Y-100055715D01*
X136014831Y-99546485D01*
X135625564Y-99156539D01*
X135393073Y-99060000D01*
X138185907Y-99060000D01*
X138298946Y-99628285D01*
X138620853Y-100110054D01*
X139102622Y-100431961D01*
X139670907Y-100545000D01*
X139729093Y-100545000D01*
X140297378Y-100431961D01*
X140779147Y-100110054D01*
X141101054Y-99628285D01*
X141214093Y-99060000D01*
X141101054Y-98491715D01*
X140779147Y-98009946D01*
X140737548Y-97982150D01*
X140785317Y-97973162D01*
X141001441Y-97834090D01*
X141146431Y-97621890D01*
X141197440Y-97370000D01*
X141197440Y-95670000D01*
X141153162Y-95434683D01*
X141014090Y-95218559D01*
X140801890Y-95073569D01*
X140550000Y-95022560D01*
X138850000Y-95022560D01*
X138614683Y-95066838D01*
X138398559Y-95205910D01*
X138253569Y-95418110D01*
X138202560Y-95670000D01*
X138202560Y-97370000D01*
X138246838Y-97605317D01*
X138385910Y-97821441D01*
X138598110Y-97966431D01*
X138665541Y-97980086D01*
X138620853Y-98009946D01*
X138298946Y-98491715D01*
X138185907Y-99060000D01*
X135393073Y-99060000D01*
X135116702Y-98945241D01*
X134565715Y-98944760D01*
X134056485Y-99155169D01*
X133666539Y-99544436D01*
X133576623Y-99760979D01*
X133512460Y-99606077D01*
X133271517Y-99538088D01*
X132479605Y-100330000D01*
X132120395Y-100330000D01*
X132106253Y-100315858D01*
X132285858Y-100136253D01*
X132300000Y-100150395D01*
X133091912Y-99358483D01*
X133023923Y-99117540D01*
X132504829Y-98932799D01*
X131965000Y-98960239D01*
X131965000Y-98813610D01*
X132203461Y-98575564D01*
X132299976Y-98343130D01*
X132395169Y-98573515D01*
X132784436Y-98963461D01*
X133293298Y-99174759D01*
X133844285Y-99175240D01*
X134353515Y-98964831D01*
X134743461Y-98575564D01*
X134954759Y-98066702D01*
X134955240Y-97515715D01*
X134744831Y-97006485D01*
X134355564Y-96616539D01*
X133846702Y-96405241D01*
X133295715Y-96404760D01*
X132786485Y-96615169D01*
X132396539Y-97004436D01*
X132300024Y-97236870D01*
X132204831Y-97006485D01*
X131815564Y-96616539D01*
X131306702Y-96405241D01*
X130755715Y-96404760D01*
X130246485Y-96615169D01*
X129856539Y-97004436D01*
X129766623Y-97220979D01*
X129702460Y-97066077D01*
X129461517Y-96998088D01*
X128669605Y-97790000D01*
X129461517Y-98581912D01*
X129702460Y-98513923D01*
X129761732Y-98347379D01*
X129855169Y-98573515D01*
X130024534Y-98743176D01*
X129822656Y-98945054D01*
X129485715Y-98944760D01*
X128976485Y-99155169D01*
X128586539Y-99544436D01*
X128490024Y-99776870D01*
X128394831Y-99546485D01*
X128005564Y-99156539D01*
X127496702Y-98945241D01*
X127191833Y-98944975D01*
X127296431Y-98791890D01*
X127302581Y-98761517D01*
X127698088Y-98761517D01*
X127766077Y-99002460D01*
X128285171Y-99187201D01*
X128835448Y-99159230D01*
X129213923Y-99002460D01*
X129281912Y-98761517D01*
X128490000Y-97969605D01*
X127698088Y-98761517D01*
X127302581Y-98761517D01*
X127347440Y-98540000D01*
X127347440Y-98533647D01*
X127518483Y-98581912D01*
X128310395Y-97790000D01*
X127518483Y-96998088D01*
X127347440Y-97046353D01*
X127347440Y-97040000D01*
X127305759Y-96818483D01*
X127698088Y-96818483D01*
X128490000Y-97610395D01*
X129281912Y-96818483D01*
X129213923Y-96577540D01*
X128694829Y-96392799D01*
X128144552Y-96420770D01*
X127766077Y-96577540D01*
X127698088Y-96818483D01*
X127305759Y-96818483D01*
X127303162Y-96804683D01*
X127164090Y-96588559D01*
X126951890Y-96443569D01*
X126700000Y-96392560D01*
X125200000Y-96392560D01*
X124964683Y-96436838D01*
X124748559Y-96575910D01*
X124603569Y-96788110D01*
X124552560Y-97040000D01*
X116978680Y-97040000D01*
X116964831Y-97006485D01*
X116575564Y-96616539D01*
X116066702Y-96405241D01*
X115515715Y-96404760D01*
X115460868Y-96427422D01*
X115914948Y-95973342D01*
X116155515Y-95873942D01*
X116446919Y-95583046D01*
X116604820Y-95202777D01*
X116605179Y-94791029D01*
X116447942Y-94410485D01*
X116157046Y-94119081D01*
X115776777Y-93961180D01*
X115365029Y-93960821D01*
X114984485Y-94118058D01*
X114693081Y-94408954D01*
X114592479Y-94651231D01*
X113338854Y-95904856D01*
X113136172Y-96208192D01*
X113097051Y-96404866D01*
X112975715Y-96404760D01*
X112466485Y-96615169D01*
X112076539Y-97004436D01*
X111986623Y-97220979D01*
X111922460Y-97066077D01*
X111681517Y-96998088D01*
X110889605Y-97790000D01*
X110530395Y-97790000D01*
X109738483Y-96998088D01*
X109567440Y-97046353D01*
X109567440Y-97040000D01*
X109525759Y-96818483D01*
X109918088Y-96818483D01*
X110710000Y-97610395D01*
X111501912Y-96818483D01*
X111433923Y-96577540D01*
X110914829Y-96392799D01*
X110364552Y-96420770D01*
X109986077Y-96577540D01*
X109918088Y-96818483D01*
X109525759Y-96818483D01*
X109523162Y-96804683D01*
X109384090Y-96588559D01*
X109171890Y-96443569D01*
X108920000Y-96392560D01*
X107420000Y-96392560D01*
X107184683Y-96436838D01*
X106968559Y-96575910D01*
X106823569Y-96788110D01*
X106772560Y-97040000D01*
X91418002Y-97040000D01*
X92434280Y-96023722D01*
X92479767Y-96023762D01*
X92823543Y-95881717D01*
X93086792Y-95618927D01*
X93229438Y-95275399D01*
X93229762Y-94903433D01*
X93087717Y-94559657D01*
X92824927Y-94296408D01*
X92481399Y-94153762D01*
X92109433Y-94153438D01*
X91765657Y-94295483D01*
X91502408Y-94558273D01*
X91359762Y-94901801D01*
X91359721Y-94948677D01*
X90215359Y-96093039D01*
X89984833Y-96092838D01*
X89641057Y-96234883D01*
X89377808Y-96497673D01*
X89235162Y-96841201D01*
X89234838Y-97213167D01*
X53034000Y-97213167D01*
X53034000Y-92680907D01*
X54395000Y-92680907D01*
X54395000Y-92739093D01*
X54508039Y-93307378D01*
X54829946Y-93789147D01*
X55311715Y-94111054D01*
X55880000Y-94224093D01*
X56448285Y-94111054D01*
X56930054Y-93789147D01*
X57150000Y-93459974D01*
X57369946Y-93789147D01*
X57851715Y-94111054D01*
X58420000Y-94224093D01*
X58988285Y-94111054D01*
X59470054Y-93789147D01*
X59690000Y-93459974D01*
X59909946Y-93789147D01*
X60391715Y-94111054D01*
X60960000Y-94224093D01*
X61528285Y-94111054D01*
X62010054Y-93789147D01*
X62230000Y-93459974D01*
X62449946Y-93789147D01*
X62931715Y-94111054D01*
X63500000Y-94224093D01*
X64068285Y-94111054D01*
X64550054Y-93789147D01*
X64770000Y-93459974D01*
X64989946Y-93789147D01*
X65471715Y-94111054D01*
X66040000Y-94224093D01*
X66608285Y-94111054D01*
X67090054Y-93789147D01*
X67310000Y-93459974D01*
X67529946Y-93789147D01*
X68011715Y-94111054D01*
X68580000Y-94224093D01*
X69148285Y-94111054D01*
X69630054Y-93789147D01*
X69850000Y-93459974D01*
X70069946Y-93789147D01*
X70551715Y-94111054D01*
X71120000Y-94224093D01*
X71688285Y-94111054D01*
X72170054Y-93789147D01*
X72390000Y-93459974D01*
X72609946Y-93789147D01*
X73091715Y-94111054D01*
X73660000Y-94224093D01*
X74228285Y-94111054D01*
X74710054Y-93789147D01*
X74930000Y-93459974D01*
X75149946Y-93789147D01*
X75631715Y-94111054D01*
X76200000Y-94224093D01*
X76768285Y-94111054D01*
X77250054Y-93789147D01*
X77470000Y-93459974D01*
X77689946Y-93789147D01*
X78171715Y-94111054D01*
X78740000Y-94224093D01*
X79308285Y-94111054D01*
X79790054Y-93789147D01*
X80010000Y-93459974D01*
X80229946Y-93789147D01*
X80711715Y-94111054D01*
X81280000Y-94224093D01*
X81848285Y-94111054D01*
X82330054Y-93789147D01*
X82550000Y-93459974D01*
X82769946Y-93789147D01*
X83251715Y-94111054D01*
X83820000Y-94224093D01*
X84388285Y-94111054D01*
X84870054Y-93789147D01*
X85090000Y-93459974D01*
X85309946Y-93789147D01*
X85791715Y-94111054D01*
X85994626Y-94151415D01*
X85991081Y-94154954D01*
X85833180Y-94535223D01*
X85832821Y-94946971D01*
X85990058Y-95327515D01*
X86280954Y-95618919D01*
X86661223Y-95776820D01*
X87072971Y-95777179D01*
X87453515Y-95619942D01*
X87744919Y-95329046D01*
X87902820Y-94948777D01*
X87902966Y-94781836D01*
X88477362Y-94207440D01*
X89750000Y-94207440D01*
X89985317Y-94163162D01*
X90201441Y-94024090D01*
X90346431Y-93811890D01*
X90397440Y-93560000D01*
X90397440Y-91927177D01*
X104219574Y-91927177D01*
X104593298Y-92831657D01*
X105284703Y-93524270D01*
X106188529Y-93899572D01*
X107167177Y-93900426D01*
X108071657Y-93526702D01*
X108764270Y-92835297D01*
X109139572Y-91931471D01*
X109139575Y-91927177D01*
X116089574Y-91927177D01*
X116463298Y-92831657D01*
X117154703Y-93524270D01*
X118058529Y-93899572D01*
X119037177Y-93900426D01*
X119941657Y-93526702D01*
X120634270Y-92835297D01*
X121009572Y-91931471D01*
X121009575Y-91927177D01*
X121999574Y-91927177D01*
X122373298Y-92831657D01*
X123064703Y-93524270D01*
X123968529Y-93899572D01*
X124947177Y-93900426D01*
X125851657Y-93526702D01*
X126544270Y-92835297D01*
X126919572Y-91931471D01*
X126919575Y-91927177D01*
X133869574Y-91927177D01*
X134243298Y-92831657D01*
X134934703Y-93524270D01*
X135838529Y-93899572D01*
X136817177Y-93900426D01*
X137721657Y-93526702D01*
X138414270Y-92835297D01*
X138789572Y-91931471D01*
X138790426Y-90952823D01*
X138416702Y-90048343D01*
X137725297Y-89355730D01*
X136821471Y-88980428D01*
X135842823Y-88979574D01*
X134938343Y-89353298D01*
X134245730Y-90044703D01*
X133870428Y-90948529D01*
X133869574Y-91927177D01*
X126919575Y-91927177D01*
X126920426Y-90952823D01*
X126546702Y-90048343D01*
X125855297Y-89355730D01*
X124951471Y-88980428D01*
X123972823Y-88979574D01*
X123068343Y-89353298D01*
X122375730Y-90044703D01*
X122000428Y-90948529D01*
X121999574Y-91927177D01*
X121009575Y-91927177D01*
X121010426Y-90952823D01*
X120636702Y-90048343D01*
X119945297Y-89355730D01*
X119041471Y-88980428D01*
X118062823Y-88979574D01*
X117158343Y-89353298D01*
X116465730Y-90044703D01*
X116090428Y-90948529D01*
X116089574Y-91927177D01*
X109139575Y-91927177D01*
X109140426Y-90952823D01*
X108766702Y-90048343D01*
X108075297Y-89355730D01*
X107171471Y-88980428D01*
X106192823Y-88979574D01*
X105288343Y-89353298D01*
X104595730Y-90044703D01*
X104220428Y-90948529D01*
X104219574Y-91927177D01*
X90397440Y-91927177D01*
X90397440Y-91860000D01*
X90353162Y-91624683D01*
X90214090Y-91408559D01*
X90001890Y-91263569D01*
X89750000Y-91212560D01*
X88050000Y-91212560D01*
X87814683Y-91256838D01*
X87598559Y-91395910D01*
X87453569Y-91608110D01*
X87439914Y-91675541D01*
X87410054Y-91630853D01*
X86928285Y-91308946D01*
X86360000Y-91195907D01*
X85791715Y-91308946D01*
X85309946Y-91630853D01*
X85090000Y-91960026D01*
X84870054Y-91630853D01*
X84580000Y-91437046D01*
X84580000Y-90654802D01*
X85040997Y-90193805D01*
X85045910Y-90201441D01*
X85258110Y-90346431D01*
X85510000Y-90397440D01*
X87210000Y-90397440D01*
X87445317Y-90353162D01*
X87661441Y-90214090D01*
X87806431Y-90001890D01*
X87820086Y-89934459D01*
X87849946Y-89979147D01*
X88331715Y-90301054D01*
X88900000Y-90414093D01*
X89468285Y-90301054D01*
X89950054Y-89979147D01*
X90170000Y-89649974D01*
X90389946Y-89979147D01*
X90871715Y-90301054D01*
X91440000Y-90414093D01*
X92008285Y-90301054D01*
X92490054Y-89979147D01*
X92710000Y-89649974D01*
X92929946Y-89979147D01*
X93411715Y-90301054D01*
X93980000Y-90414093D01*
X94548285Y-90301054D01*
X95030054Y-89979147D01*
X95250000Y-89649974D01*
X95469946Y-89979147D01*
X95951715Y-90301054D01*
X96520000Y-90414093D01*
X97088285Y-90301054D01*
X97570054Y-89979147D01*
X97891961Y-89497378D01*
X98005000Y-88929093D01*
X98005000Y-88870907D01*
X97891961Y-88302622D01*
X97723165Y-88050000D01*
X99340560Y-88050000D01*
X99340560Y-89750000D01*
X99384838Y-89985317D01*
X99523910Y-90201441D01*
X99736110Y-90346431D01*
X99988000Y-90397440D01*
X101688000Y-90397440D01*
X101923317Y-90353162D01*
X102139441Y-90214090D01*
X102284431Y-90001890D01*
X102298086Y-89934459D01*
X102327946Y-89979147D01*
X102809715Y-90301054D01*
X103378000Y-90414093D01*
X103946285Y-90301054D01*
X104428054Y-89979147D01*
X104749961Y-89497378D01*
X104863000Y-88929093D01*
X104863000Y-88870907D01*
X104749961Y-88302622D01*
X104594624Y-88070143D01*
X138493115Y-88070143D01*
X138830758Y-88887300D01*
X139455411Y-89513045D01*
X140271978Y-89852113D01*
X141156143Y-89852885D01*
X141973300Y-89515242D01*
X142599045Y-88890589D01*
X142938113Y-88074022D01*
X142938885Y-87189857D01*
X142601242Y-86372700D01*
X141976589Y-85746955D01*
X141160022Y-85407887D01*
X140275857Y-85407115D01*
X139458700Y-85744758D01*
X138832955Y-86369411D01*
X138493887Y-87185978D01*
X138493115Y-88070143D01*
X104594624Y-88070143D01*
X104428054Y-87820853D01*
X103946285Y-87498946D01*
X103378000Y-87385907D01*
X102809715Y-87498946D01*
X102327946Y-87820853D01*
X102300150Y-87862452D01*
X102291162Y-87814683D01*
X102152090Y-87598559D01*
X101939890Y-87453569D01*
X101688000Y-87402560D01*
X99988000Y-87402560D01*
X99752683Y-87446838D01*
X99536559Y-87585910D01*
X99391569Y-87798110D01*
X99340560Y-88050000D01*
X97723165Y-88050000D01*
X97570054Y-87820853D01*
X97088285Y-87498946D01*
X96520000Y-87385907D01*
X95951715Y-87498946D01*
X95469946Y-87820853D01*
X95250000Y-88150026D01*
X95030054Y-87820853D01*
X94548285Y-87498946D01*
X93980000Y-87385907D01*
X93411715Y-87498946D01*
X92929946Y-87820853D01*
X92710000Y-88150026D01*
X92490054Y-87820853D01*
X92008285Y-87498946D01*
X91440000Y-87385907D01*
X90871715Y-87498946D01*
X90389946Y-87820853D01*
X90170000Y-88150026D01*
X89950054Y-87820853D01*
X89468285Y-87498946D01*
X88900000Y-87385907D01*
X88331715Y-87498946D01*
X87849946Y-87820853D01*
X87822150Y-87862452D01*
X87813162Y-87814683D01*
X87674090Y-87598559D01*
X87461890Y-87453569D01*
X87210000Y-87402560D01*
X85510000Y-87402560D01*
X85274683Y-87446838D01*
X85058559Y-87585910D01*
X84913569Y-87798110D01*
X84862560Y-88050000D01*
X84862560Y-88269080D01*
X84722599Y-88362599D01*
X83282599Y-89802599D01*
X83117852Y-90049161D01*
X83060000Y-90340000D01*
X83060000Y-91437046D01*
X82769946Y-91630853D01*
X82550000Y-91960026D01*
X82330054Y-91630853D01*
X81848285Y-91308946D01*
X81280000Y-91195907D01*
X80711715Y-91308946D01*
X80229946Y-91630853D01*
X80010000Y-91960026D01*
X79790054Y-91630853D01*
X79308285Y-91308946D01*
X78740000Y-91195907D01*
X78171715Y-91308946D01*
X77689946Y-91630853D01*
X77470000Y-91960026D01*
X77250054Y-91630853D01*
X76768285Y-91308946D01*
X76200000Y-91195907D01*
X75631715Y-91308946D01*
X75149946Y-91630853D01*
X74930000Y-91960026D01*
X74710054Y-91630853D01*
X74228285Y-91308946D01*
X73660000Y-91195907D01*
X73091715Y-91308946D01*
X72609946Y-91630853D01*
X72390000Y-91960026D01*
X72170054Y-91630853D01*
X71688285Y-91308946D01*
X71120000Y-91195907D01*
X70551715Y-91308946D01*
X70069946Y-91630853D01*
X69850000Y-91960026D01*
X69630054Y-91630853D01*
X69148285Y-91308946D01*
X68580000Y-91195907D01*
X68011715Y-91308946D01*
X67529946Y-91630853D01*
X67310000Y-91960026D01*
X67090054Y-91630853D01*
X66608285Y-91308946D01*
X66040000Y-91195907D01*
X65471715Y-91308946D01*
X64989946Y-91630853D01*
X64770000Y-91960026D01*
X64550054Y-91630853D01*
X64068285Y-91308946D01*
X63500000Y-91195907D01*
X62931715Y-91308946D01*
X62449946Y-91630853D01*
X62230000Y-91960026D01*
X62010054Y-91630853D01*
X61528285Y-91308946D01*
X60960000Y-91195907D01*
X60391715Y-91308946D01*
X59909946Y-91630853D01*
X59690000Y-91960026D01*
X59470054Y-91630853D01*
X58988285Y-91308946D01*
X58420000Y-91195907D01*
X57851715Y-91308946D01*
X57369946Y-91630853D01*
X57150000Y-91960026D01*
X56930054Y-91630853D01*
X56448285Y-91308946D01*
X55880000Y-91195907D01*
X55311715Y-91308946D01*
X54829946Y-91630853D01*
X54508039Y-92112622D01*
X54395000Y-92680907D01*
X53034000Y-92680907D01*
X53034000Y-88070143D01*
X53149115Y-88070143D01*
X53486758Y-88887300D01*
X54111411Y-89513045D01*
X54927978Y-89852113D01*
X55812143Y-89852885D01*
X56629300Y-89515242D01*
X57255045Y-88890589D01*
X57594113Y-88074022D01*
X57594885Y-87189857D01*
X57257242Y-86372700D01*
X56632589Y-85746955D01*
X55816022Y-85407887D01*
X54931857Y-85407115D01*
X54114700Y-85744758D01*
X53488955Y-86369411D01*
X53149887Y-87185978D01*
X53149115Y-88070143D01*
X53034000Y-88070143D01*
X53034000Y-85292000D01*
X143054000Y-85292000D01*
X143054000Y-125274000D01*
M02*
