M48
;DRILL file {KiCad 4.0.6-e0-6349~53~ubuntu16.04.1} date Sat Apr 29 18:22:22 2017
;FORMAT={-:-/ absolute / inch / decimal}
FMAT,2
INCH,TZ
T1C0.016
T2C0.020
T3C0.031
T4C0.035
T5C0.039
T6C0.043
%
G90
G05
M72
T1
X3.0194Y-4.416
X3.08Y-4.419
X3.27Y-4.03
X3.3Y-4.35
X3.32Y-3.94
X3.34Y-4.
X3.37Y-3.97
X3.37Y-4.14
X3.4Y-4.11
X3.43Y-4.09
X3.46Y-4.06
X3.55Y-3.82
X3.575Y-3.983
X3.63Y-4.15
X3.63Y-4.21
X3.6336Y-3.7436
X3.667Y-3.943
X3.705Y-3.6695
X3.7531Y-3.9629
X3.791Y-4.342
X3.8185Y-3.98
X3.8185Y-4.07
X3.82Y-4.4
X3.85Y-3.93
X3.85Y-4.07
X3.8854Y-3.9346
X3.8854Y-4.07
X3.965Y-3.961
X4.0026Y-3.6718
X4.0371Y-3.9629
X4.07Y-4.4
X4.13Y-4.
T2
X3.4198Y-3.9298
X3.42Y-3.73
X3.45Y-4.21
X4.41Y-4.57
X4.55Y-3.74
T3
X3.27Y-4.49
X3.27Y-4.5687
X3.51Y-4.49
X3.51Y-4.5687
T4
X4.2587Y-3.85
X4.2587Y-4.35
X4.3087Y-3.95
X4.3087Y-4.45
X4.3587Y-3.85
X4.3587Y-4.35
X4.4087Y-3.95
X4.4087Y-4.45
X4.4587Y-3.85
X4.4587Y-4.35
X4.5087Y-3.95
X4.5087Y-4.45
X4.5587Y-3.85
X4.5587Y-4.35
X4.6087Y-3.95
X4.6087Y-4.45
X4.9587Y-3.85
X4.9587Y-4.35
X5.0087Y-3.95
X5.0087Y-4.45
X5.0587Y-3.85
X5.0587Y-4.35
X5.1087Y-3.95
X5.1087Y-4.45
X5.1587Y-3.85
X5.1587Y-4.35
X5.2087Y-3.95
X5.2087Y-4.45
X5.2587Y-3.85
X5.2587Y-4.35
X5.3087Y-3.95
X5.3087Y-4.45
T5
X2.2Y-3.65
X2.2Y-4.25
X2.3Y-3.65
X2.3Y-4.25
X2.4Y-3.65
X2.4Y-4.25
X2.5Y-3.65
X2.5Y-4.25
X2.6Y-3.65
X2.6Y-4.25
X2.7Y-3.65
X2.7Y-4.25
X2.8Y-3.65
X2.8Y-4.25
X2.9Y-3.65
X2.9Y-4.25
X3.Y-3.65
X3.Y-4.25
X3.1Y-3.65
X3.1Y-4.25
X3.2Y-3.65
X3.2Y-4.25
X3.3Y-3.65
X3.3Y-4.25
X3.4Y-3.5
X3.4Y-3.65
X3.4Y-4.25
X3.5Y-3.5
X3.5Y-3.65
X3.5Y-4.25
X3.5Y-4.8
X3.6Y-3.5
X3.6Y-4.8
X3.7Y-3.5
X3.7Y-4.447
X3.7Y-4.547
X3.7Y-4.8
X3.8Y-3.5
X3.8Y-4.8
X3.9Y-4.447
X3.9Y-4.547
X3.9Y-4.8
X3.97Y-3.5
X4.Y-4.447
X4.Y-4.547
X4.07Y-3.5
X5.3Y-4.1
X5.3Y-4.2
X5.4Y-4.1
X5.4Y-4.2
X5.5Y-3.8
X5.5Y-3.9
X5.5Y-4.4
X5.5Y-4.5
T6
X2.31Y-4.4531
X2.31Y-4.65
T0
M30
