G04 #@! TF.FileFunction,Copper,L1,Top,Signal*
%FSLAX46Y46*%
G04 Gerber Fmt 4.6, Leading zero omitted, Abs format (unit mm)*
G04 Created by KiCad (PCBNEW 4.0.6-e0-6349~53~ubuntu16.04.1) date Sat Apr 29 18:22:20 2017*
%MOMM*%
%LPD*%
G01*
G04 APERTURE LIST*
%ADD10C,0.100000*%
%ADD11R,1.600000X1.600000*%
%ADD12C,1.600000*%
%ADD13R,1.700000X1.700000*%
%ADD14O,1.700000X1.700000*%
%ADD15R,1.600000X1.000000*%
%ADD16R,1.250000X1.000000*%
%ADD17C,3.650000*%
%ADD18R,1.500000X1.500000*%
%ADD19C,1.500000*%
%ADD20R,1.524000X0.508000*%
%ADD21R,0.700000X1.300000*%
%ADD22R,1.300000X0.700000*%
%ADD23R,3.800000X2.000000*%
%ADD24R,1.500000X2.000000*%
%ADD25R,1.200000X0.240000*%
%ADD26C,1.824000*%
%ADD27C,0.600000*%
%ADD28C,0.800000*%
%ADD29C,0.800000*%
%ADD30C,1.500000*%
%ADD31C,1.000000*%
%ADD32C,0.250000*%
%ADD33C,0.400000*%
%ADD34C,0.600000*%
%ADD35C,0.200000*%
G04 APERTURE END LIST*
D10*
D11*
X89154000Y-116046000D03*
D12*
X89154000Y-114046000D03*
D13*
X88900000Y-121920000D03*
D14*
X91440000Y-121920000D03*
X93980000Y-121920000D03*
X96520000Y-121920000D03*
X99060000Y-121920000D03*
D13*
X55880000Y-107950000D03*
D14*
X58420000Y-107950000D03*
X60960000Y-107950000D03*
X63500000Y-107950000D03*
X66040000Y-107950000D03*
X68580000Y-107950000D03*
X71120000Y-107950000D03*
X73660000Y-107950000D03*
X76200000Y-107950000D03*
X78740000Y-107950000D03*
X81280000Y-107950000D03*
X83820000Y-107950000D03*
X86360000Y-107950000D03*
X88900000Y-107950000D03*
D13*
X86360000Y-88900000D03*
D14*
X88900000Y-88900000D03*
X91440000Y-88900000D03*
X93980000Y-88900000D03*
X96520000Y-88900000D03*
D15*
X67564000Y-113816000D03*
X67564000Y-116816000D03*
X78232000Y-116562000D03*
X78232000Y-113562000D03*
D11*
X83058000Y-116046000D03*
D12*
X83058000Y-114046000D03*
D16*
X92049600Y-101161600D03*
X92049600Y-99161600D03*
X103657400Y-99600000D03*
X103657400Y-101600000D03*
D13*
X93980000Y-112953800D03*
D14*
X93980000Y-115493800D03*
D13*
X101600000Y-112953800D03*
D14*
X101600000Y-115493800D03*
X99060000Y-112953800D03*
X99060000Y-115493800D03*
D13*
X88900000Y-92710000D03*
D14*
X86360000Y-92710000D03*
X83820000Y-92710000D03*
X81280000Y-92710000D03*
X78740000Y-92710000D03*
X76200000Y-92710000D03*
X73660000Y-92710000D03*
X71120000Y-92710000D03*
X68580000Y-92710000D03*
X66040000Y-92710000D03*
X63500000Y-92710000D03*
X60960000Y-92710000D03*
X58420000Y-92710000D03*
X55880000Y-92710000D03*
D17*
X106680000Y-119380000D03*
X118550000Y-119380000D03*
D18*
X117060000Y-113030000D03*
D19*
X115790000Y-110490000D03*
X114520000Y-113030000D03*
X113250000Y-110490000D03*
X111980000Y-113030000D03*
X110710000Y-110490000D03*
X109440000Y-113030000D03*
X108170000Y-110490000D03*
D13*
X139700000Y-114300000D03*
D14*
X139700000Y-111760000D03*
D17*
X124460000Y-119380000D03*
X136330000Y-119380000D03*
D18*
X134840000Y-113030000D03*
D19*
X133570000Y-110490000D03*
X132300000Y-113030000D03*
X131030000Y-110490000D03*
X129760000Y-113030000D03*
X128490000Y-110490000D03*
X127220000Y-113030000D03*
X125950000Y-110490000D03*
D13*
X134620000Y-106680000D03*
D14*
X137160000Y-106680000D03*
D17*
X136330000Y-91440000D03*
X124460000Y-91440000D03*
D18*
X125950000Y-97790000D03*
D19*
X127220000Y-100330000D03*
X128490000Y-97790000D03*
X129760000Y-100330000D03*
X131030000Y-97790000D03*
X132300000Y-100330000D03*
X133570000Y-97790000D03*
X134840000Y-100330000D03*
D13*
X100838000Y-88900000D03*
D14*
X103378000Y-88900000D03*
D13*
X134620000Y-104140000D03*
D14*
X137160000Y-104140000D03*
D17*
X118550000Y-91440000D03*
X106680000Y-91440000D03*
D18*
X108170000Y-97790000D03*
D19*
X109440000Y-100330000D03*
X110710000Y-97790000D03*
X111980000Y-100330000D03*
X113250000Y-97790000D03*
X114520000Y-100330000D03*
X115790000Y-97790000D03*
X117060000Y-100330000D03*
D13*
X139700000Y-96520000D03*
D14*
X139700000Y-99060000D03*
D10*
G36*
X71755000Y-116459000D02*
X71755000Y-114173000D01*
X73279000Y-114935000D01*
X73279000Y-115697000D01*
X71755000Y-116459000D01*
X71755000Y-116459000D01*
G37*
G36*
X70993000Y-114173000D02*
X70993000Y-116459000D01*
X69469000Y-115697000D01*
X69469000Y-114935000D01*
X70993000Y-114173000D01*
X70993000Y-114173000D01*
G37*
D20*
X71374000Y-115316000D03*
D21*
X93578600Y-110286800D03*
X95478600Y-110286800D03*
X103068200Y-110363000D03*
X101168200Y-110363000D03*
X97358200Y-110363000D03*
X99258200Y-110363000D03*
D22*
X118364000Y-108844000D03*
X118364000Y-110744000D03*
D21*
X107574000Y-107950000D03*
X109474000Y-107950000D03*
D22*
X136144000Y-108966000D03*
X136144000Y-110866000D03*
X124714000Y-112654000D03*
X124714000Y-114554000D03*
D21*
X102870000Y-91440000D03*
X100970000Y-91440000D03*
D22*
X124714000Y-101722000D03*
X124714000Y-99822000D03*
X136144000Y-98166000D03*
X136144000Y-96266000D03*
D21*
X112268000Y-95504000D03*
X110368000Y-95504000D03*
D22*
X118364000Y-98420000D03*
X118364000Y-96520000D03*
D23*
X72644000Y-118466000D03*
D24*
X72644000Y-112166000D03*
X70344000Y-112166000D03*
X74944000Y-112166000D03*
D25*
X94167000Y-93657400D03*
X94167000Y-94157400D03*
X94167000Y-94657400D03*
X94167000Y-95157400D03*
X94167000Y-95657400D03*
X94167000Y-96157400D03*
X94167000Y-96657400D03*
X94167000Y-97157400D03*
X94167000Y-97657400D03*
X94167000Y-98157400D03*
X94167000Y-98657400D03*
X94167000Y-99157400D03*
X94167000Y-99657400D03*
X94167000Y-100157400D03*
X94167000Y-100657400D03*
X94167000Y-101157400D03*
X94167000Y-101657400D03*
X94167000Y-102157400D03*
X94167000Y-102657400D03*
X94167000Y-103157400D03*
X94167000Y-103657400D03*
X94167000Y-104157400D03*
X94167000Y-104657400D03*
X94167000Y-105157400D03*
X94167000Y-105657400D03*
X94167000Y-106157400D03*
X94167000Y-106657400D03*
X94167000Y-107157400D03*
X101667000Y-107157400D03*
X101667000Y-106657400D03*
X101667000Y-106157400D03*
X101667000Y-105657400D03*
X101667000Y-105157400D03*
X101667000Y-104657400D03*
X101667000Y-104157400D03*
X101667000Y-103657400D03*
X101667000Y-103157400D03*
X101667000Y-102657400D03*
X101667000Y-102157400D03*
X101667000Y-101657400D03*
X101667000Y-101157400D03*
X101667000Y-100657400D03*
X101667000Y-100157400D03*
X101667000Y-99657400D03*
X101667000Y-99157400D03*
X101667000Y-98657400D03*
X101667000Y-98157400D03*
X101667000Y-97657400D03*
X101667000Y-97157400D03*
X101667000Y-96657400D03*
X101667000Y-96157400D03*
X101667000Y-95657400D03*
X101667000Y-95157400D03*
X101667000Y-94657400D03*
X101667000Y-94157400D03*
X101667000Y-93657400D03*
D26*
X58674000Y-113110000D03*
X58674000Y-118110000D03*
D27*
X102542600Y-100657400D03*
X104902000Y-101600000D03*
X103378000Y-111760000D03*
X97028000Y-111760000D03*
X96291400Y-110286800D03*
X78232000Y-112242600D03*
X76694000Y-112166000D03*
X90805000Y-101168200D03*
X93141800Y-100152200D03*
X101667000Y-93264900D03*
X94107000Y-93204900D03*
X100711000Y-100609400D03*
X95329000Y-100657400D03*
X90170000Y-97028000D03*
X92294600Y-95088600D03*
X83058000Y-102362000D03*
X85598000Y-105156000D03*
X83820000Y-110490000D03*
X96989997Y-101092000D03*
X96989997Y-103378000D03*
X98690003Y-99937997D03*
X98690003Y-103378000D03*
X97790000Y-99822000D03*
X97790000Y-103378000D03*
D28*
X87630000Y-106934000D03*
X86861937Y-99815937D03*
X86868000Y-94742000D03*
D27*
X92202000Y-106934000D03*
X92202000Y-105410000D03*
X86360000Y-104394000D03*
X84328000Y-100076000D03*
X87884000Y-103124000D03*
X85598000Y-100838000D03*
X87122000Y-103886000D03*
X84836000Y-101600000D03*
D28*
X112014000Y-116078000D03*
X115570000Y-94996000D03*
D29*
X142240000Y-111760000D02*
X142240000Y-117856000D01*
X142240000Y-117856000D02*
X136144000Y-123952000D01*
X136144000Y-123952000D02*
X59944000Y-123952000D01*
X59944000Y-123952000D02*
X54864000Y-118872000D01*
X54864000Y-118872000D02*
X54864000Y-115425787D01*
X54864000Y-115425787D02*
X57179787Y-113110000D01*
X57179787Y-113110000D02*
X58674000Y-113110000D01*
D30*
X67564000Y-113816000D02*
X67080000Y-114300000D01*
X67080000Y-114300000D02*
X59864000Y-114300000D01*
X59864000Y-114300000D02*
X58674000Y-113110000D01*
D29*
X142240000Y-99060000D02*
X139700000Y-99060000D01*
X142240000Y-104140000D02*
X142240000Y-99060000D01*
X142240000Y-104140000D02*
X137160000Y-104140000D01*
X142240000Y-106680000D02*
X142240000Y-104140000D01*
X142240000Y-106680000D02*
X137160000Y-106680000D01*
X142240000Y-111760000D02*
X142240000Y-106680000D01*
X142240000Y-111760000D02*
X139700000Y-111760000D01*
D31*
X68694000Y-113816000D02*
X68731000Y-113816000D01*
X68731000Y-113816000D02*
X69911999Y-114996999D01*
X69911999Y-114996999D02*
X69911999Y-115316000D01*
D30*
X67564000Y-113816000D02*
X68694000Y-113816000D01*
X68694000Y-113816000D02*
X70344000Y-112166000D01*
X67564000Y-116816000D02*
X66016000Y-116816000D01*
X66016000Y-116816000D02*
X66000001Y-116800001D01*
X66000001Y-116800001D02*
X59983999Y-116800001D01*
X59983999Y-116800001D02*
X58674000Y-118110000D01*
D32*
X101667000Y-100657400D02*
X102542600Y-100657400D01*
X103657400Y-101600000D02*
X104902000Y-101600000D01*
X103378000Y-111760000D02*
X103378000Y-110672800D01*
X103378000Y-110672800D02*
X103068200Y-110363000D01*
X97028000Y-111760000D02*
X97028000Y-110693200D01*
X97028000Y-110693200D02*
X97358200Y-110363000D01*
X96078600Y-110286800D02*
X96291400Y-110286800D01*
X95478600Y-110286800D02*
X96078600Y-110286800D01*
D31*
X78232000Y-113562000D02*
X78232000Y-112242600D01*
X76694400Y-112166400D02*
X76694000Y-112166000D01*
X74944000Y-112166000D02*
X76694000Y-112166000D01*
D32*
X91168000Y-101168200D02*
X90805000Y-101168200D01*
X92049600Y-101161600D02*
X91174600Y-101161600D01*
X91174600Y-101161600D02*
X91168000Y-101168200D01*
X93411800Y-100152200D02*
X93141800Y-100152200D01*
X94167000Y-100157400D02*
X93417000Y-100157400D01*
X93417000Y-100157400D02*
X93411800Y-100152200D01*
X94167000Y-94657400D02*
X94167000Y-94157400D01*
X101667000Y-94157400D02*
X101667000Y-93657400D01*
X94167000Y-93657400D02*
X94167000Y-94157400D01*
X101688500Y-93243400D02*
X101667000Y-93264900D01*
X101667000Y-93657400D02*
X101667000Y-93264900D01*
X94167000Y-93657400D02*
X94167000Y-93264900D01*
X94167000Y-93264900D02*
X94107000Y-93204900D01*
X101667000Y-100157400D02*
X101667000Y-100657400D01*
X101667000Y-101157400D02*
X101667000Y-100657400D01*
X101667000Y-101657400D02*
X101667000Y-101157400D01*
X101667000Y-99657400D02*
X101667000Y-100157400D01*
X94167000Y-101157400D02*
X94167000Y-100657400D01*
X94167000Y-101657400D02*
X94167000Y-101157400D01*
X94167000Y-100157400D02*
X94167000Y-100657400D01*
X94167000Y-99657400D02*
X94167000Y-100157400D01*
X101667000Y-100657400D02*
X100759000Y-100657400D01*
X100759000Y-100657400D02*
X100711000Y-100609400D01*
X94167000Y-100657400D02*
X95329000Y-100657400D01*
X94488000Y-117602000D02*
X93980000Y-117094000D01*
X93980000Y-117094000D02*
X93980000Y-115493800D01*
D31*
X96774000Y-117602000D02*
X99060000Y-117602000D01*
X99060000Y-117602000D02*
X102870000Y-117602000D01*
D33*
X99060000Y-121920000D02*
X99060000Y-120717919D01*
X99060000Y-120717919D02*
X99060000Y-117602000D01*
D31*
X92510000Y-117602000D02*
X94488000Y-117602000D01*
X94488000Y-117602000D02*
X96774000Y-117602000D01*
D32*
X94538800Y-117551200D02*
X94488000Y-117602000D01*
D31*
X102870000Y-117602000D02*
X104140000Y-116332000D01*
X89154000Y-116046000D02*
X90954000Y-116046000D01*
X90954000Y-116046000D02*
X92510000Y-117602000D01*
D32*
X101667000Y-99157400D02*
X103214800Y-99157400D01*
X103214800Y-99157400D02*
X103657400Y-99600000D01*
D34*
X72644000Y-112166000D02*
X72644000Y-111252000D01*
X54102000Y-94488000D02*
X55880000Y-92710000D01*
X72644000Y-111252000D02*
X71882000Y-110490000D01*
X71882000Y-110490000D02*
X54102000Y-110490000D01*
X54102000Y-110490000D02*
X54102000Y-94488000D01*
D32*
X101600000Y-115493800D02*
X102449999Y-116343799D01*
X102449999Y-116343799D02*
X104128201Y-116343799D01*
X104128201Y-116343799D02*
X104140000Y-116332000D01*
D29*
X100076000Y-107950000D02*
X100076000Y-102285800D01*
X100076000Y-102285800D02*
X99949000Y-102158800D01*
X103124000Y-107950000D02*
X100076000Y-107950000D01*
X104394000Y-109220000D02*
X103124000Y-107950000D01*
X104394000Y-112076002D02*
X104394000Y-109220000D01*
X104140000Y-116332000D02*
X104140000Y-112330002D01*
X104140000Y-112330002D02*
X104394000Y-112076002D01*
D34*
X99949000Y-102158800D02*
X96139000Y-102158800D01*
X96139000Y-102158800D02*
X96137600Y-102157400D01*
D31*
X73379000Y-115316000D02*
X75186000Y-115316000D01*
X75186000Y-115316000D02*
X76432000Y-116562000D01*
X76432000Y-116562000D02*
X78232000Y-116562000D01*
D32*
X99949000Y-102158800D02*
X99949000Y-100076000D01*
X99949000Y-100076000D02*
X99949000Y-99161600D01*
X96139000Y-102158800D02*
X96139000Y-100330000D01*
X96139000Y-100330000D02*
X96139000Y-99187000D01*
X99060000Y-115493800D02*
X101600000Y-115493800D01*
D31*
X78232000Y-116562000D02*
X82542000Y-116562000D01*
X82542000Y-116562000D02*
X83058000Y-116046000D01*
X72644000Y-118466000D02*
X72644000Y-116466000D01*
X72644000Y-116466000D02*
X73379000Y-115731000D01*
X73379000Y-115731000D02*
X73379000Y-115316000D01*
X72644000Y-112166000D02*
X72644000Y-114166000D01*
X72644000Y-114166000D02*
X73379000Y-114901000D01*
X73379000Y-114901000D02*
X73379000Y-115316000D01*
D35*
X72517000Y-115316000D02*
X73379000Y-115316000D01*
D32*
X92049600Y-99161600D02*
X94162800Y-99161600D01*
X94162800Y-99161600D02*
X94167000Y-99157400D01*
X99949000Y-99161600D02*
X99949000Y-94640400D01*
X101667000Y-99157400D02*
X99953200Y-99157400D01*
X99953200Y-99157400D02*
X99949000Y-99161600D01*
X99949000Y-94640400D02*
X99966000Y-94657400D01*
X99966000Y-94657400D02*
X101667000Y-94657400D01*
X101190800Y-102158800D02*
X99949000Y-102158800D01*
X101667000Y-102157400D02*
X101192200Y-102157400D01*
X101192200Y-102157400D02*
X101190800Y-102158800D01*
X96139000Y-107162600D02*
X96139000Y-106146600D01*
X96139000Y-106146600D02*
X96139000Y-105156000D01*
X94167000Y-106157400D02*
X96128200Y-106157400D01*
X96128200Y-106157400D02*
X96139000Y-106146600D01*
X96139000Y-105156000D02*
X96139000Y-104140000D01*
X94167000Y-105157400D02*
X96137600Y-105157400D01*
X96137600Y-105157400D02*
X96139000Y-105156000D01*
X96139000Y-104140000D02*
X96139000Y-103149400D01*
X94167000Y-104157400D02*
X96121600Y-104157400D01*
X96121600Y-104157400D02*
X96139000Y-104140000D01*
X96139000Y-103149400D02*
X96139000Y-102158800D01*
X94167000Y-103157400D02*
X94917000Y-103157400D01*
X94917000Y-103157400D02*
X94925000Y-103149400D01*
X94925000Y-103149400D02*
X96139000Y-103149400D01*
X94167000Y-102157400D02*
X96137600Y-102157400D01*
X96139000Y-99187000D02*
X96139000Y-98628200D01*
X94167000Y-99157400D02*
X96109400Y-99157400D01*
X96109400Y-99157400D02*
X96139000Y-99187000D01*
X94167000Y-98657400D02*
X96109800Y-98657400D01*
X96139000Y-98628200D02*
X96139000Y-97663000D01*
X96109800Y-98657400D02*
X96139000Y-98628200D01*
X94167000Y-97657400D02*
X96133400Y-97657400D01*
X96139000Y-97663000D02*
X96139000Y-96672400D01*
X96133400Y-97657400D02*
X96139000Y-97663000D01*
X96139000Y-96672400D02*
X96139000Y-95656400D01*
X94167000Y-96657400D02*
X96124000Y-96657400D01*
X96124000Y-96657400D02*
X96139000Y-96672400D01*
X94167000Y-107157400D02*
X94917000Y-107157400D01*
X94917000Y-107157400D02*
X94922200Y-107162600D01*
X94922200Y-107162600D02*
X96139000Y-107162600D01*
X96139000Y-95656400D02*
X96138000Y-95657400D01*
X96138000Y-95657400D02*
X94167000Y-95657400D01*
X90170000Y-97028000D02*
X90170000Y-97533180D01*
X90170000Y-97533180D02*
X84579180Y-103124000D01*
X84579180Y-103124000D02*
X77978000Y-103124000D01*
X77978000Y-103124000D02*
X74930000Y-106172000D01*
X74930000Y-106172000D02*
X65278000Y-106172000D01*
X65278000Y-106172000D02*
X63500000Y-107950000D01*
X92294600Y-95157400D02*
X92294600Y-95088600D01*
X92294600Y-95157400D02*
X94167000Y-95157400D01*
X94167000Y-105657400D02*
X93417000Y-105657400D01*
X93417000Y-105657400D02*
X93410400Y-105664000D01*
X92456000Y-106172000D02*
X86106000Y-106172000D01*
X86106000Y-106172000D02*
X85090000Y-107188000D01*
X93410400Y-105664000D02*
X92964000Y-105664000D01*
X92964000Y-105664000D02*
X92456000Y-106172000D01*
X85090000Y-107188000D02*
X85090000Y-109162010D01*
X85090000Y-109162010D02*
X84582000Y-109670010D01*
X84582000Y-109670010D02*
X72840010Y-109670010D01*
X72840010Y-109670010D02*
X71120000Y-107950000D01*
X73660000Y-107950000D02*
X74930000Y-109220000D01*
X90311798Y-101600000D02*
X91369198Y-102657400D01*
X74930000Y-109220000D02*
X79463002Y-109220000D01*
X79463002Y-109220000D02*
X80010000Y-108673002D01*
X80010000Y-108673002D02*
X80010000Y-106934000D01*
X80010000Y-106934000D02*
X82296000Y-104648000D01*
X82296000Y-104648000D02*
X85090000Y-104648000D01*
X85090000Y-104648000D02*
X88138000Y-101600000D01*
X88138000Y-101600000D02*
X90311798Y-101600000D01*
X91369198Y-102657400D02*
X93417000Y-102657400D01*
X93417000Y-102657400D02*
X94167000Y-102657400D01*
X84707590Y-103632000D02*
X91182190Y-97157400D01*
X91182190Y-97157400D02*
X94167000Y-97157400D01*
X76200000Y-107950000D02*
X76200000Y-106747919D01*
X76200000Y-106747919D02*
X79315919Y-103632000D01*
X79315919Y-103632000D02*
X84707590Y-103632000D01*
X94167000Y-98157400D02*
X90818600Y-98157400D01*
X90818600Y-98157400D02*
X84836000Y-104140000D01*
X84836000Y-104140000D02*
X81026000Y-104140000D01*
X81026000Y-104140000D02*
X78740000Y-106426000D01*
X78740000Y-106426000D02*
X78740000Y-107950000D01*
X82941000Y-102362000D02*
X82804000Y-102499000D01*
X82804000Y-102499000D02*
X76083000Y-102499000D01*
X83058000Y-102362000D02*
X82941000Y-102362000D01*
X93130001Y-88050001D02*
X93980000Y-88900000D01*
X76083000Y-102499000D02*
X68072000Y-94488000D01*
X68072000Y-94488000D02*
X62992000Y-94488000D01*
X62992000Y-94488000D02*
X62230000Y-93726000D01*
X62230000Y-93726000D02*
X62230000Y-91694000D01*
X64516000Y-89408000D02*
X71882000Y-89408000D01*
X62230000Y-91694000D02*
X64516000Y-89408000D01*
X71882000Y-89408000D02*
X74872010Y-86417990D01*
X74872010Y-86417990D02*
X91497990Y-86417990D01*
X91497990Y-86417990D02*
X93130001Y-88050001D01*
X84074000Y-105156000D02*
X85598000Y-105156000D01*
X82129999Y-107100001D02*
X84074000Y-105156000D01*
X81280000Y-107950000D02*
X82129999Y-107100001D01*
X72644000Y-110236000D02*
X83058000Y-110236000D01*
X83820000Y-110490000D02*
X83395736Y-110490000D01*
X83395736Y-110490000D02*
X83141736Y-110236000D01*
X83141736Y-110236000D02*
X83058000Y-110236000D01*
X62738000Y-88900000D02*
X59690000Y-91948000D01*
X96520000Y-88900000D02*
X93587981Y-85967981D01*
X74560019Y-85967981D02*
X71628000Y-88900000D01*
X93587981Y-85967981D02*
X74560019Y-85967981D01*
X71628000Y-88900000D02*
X62738000Y-88900000D01*
X59690000Y-91948000D02*
X59690000Y-108966000D01*
X59690000Y-108966000D02*
X60452000Y-109728000D01*
X60452000Y-109728000D02*
X72136000Y-109728000D01*
X72136000Y-109728000D02*
X72644000Y-110236000D01*
X86360000Y-119380000D02*
X88900000Y-119380000D01*
X88900000Y-119380000D02*
X91440000Y-121920000D01*
X86360000Y-107950000D02*
X86360000Y-119380000D01*
X88900000Y-107950000D02*
X87122000Y-109728000D01*
X87122000Y-109728000D02*
X87122000Y-118618000D01*
X87122000Y-118618000D02*
X90678000Y-118618000D01*
X90678000Y-118618000D02*
X93980000Y-121920000D01*
X93980000Y-112953800D02*
X93980000Y-110688200D01*
X93980000Y-110688200D02*
X93578600Y-110286800D01*
X99315004Y-100836996D02*
X99315004Y-96266000D01*
X99315004Y-96215082D02*
X99315004Y-96266000D01*
X73660000Y-92710000D02*
X76142010Y-90227990D01*
X76142010Y-90227990D02*
X93327912Y-90227990D01*
X93327912Y-90227990D02*
X99315004Y-96215082D01*
X99060000Y-101092000D02*
X99315004Y-100836996D01*
X96989997Y-101092000D02*
X99060000Y-101092000D01*
X97028000Y-108458000D02*
X96989997Y-103378000D01*
X97028000Y-103378000D02*
X96989997Y-103378000D01*
X95214398Y-108966000D02*
X96520000Y-108966000D01*
X96520000Y-108966000D02*
X97028000Y-108458000D01*
X94488000Y-109977400D02*
X94488000Y-109692398D01*
X94488000Y-109692398D02*
X95214398Y-108966000D01*
X94178600Y-110286800D02*
X94488000Y-109977400D01*
X94178600Y-110286800D02*
X93578600Y-110286800D01*
X98240010Y-95776498D02*
X93141512Y-90678000D01*
X98690003Y-96254709D02*
X98240010Y-95804716D01*
X98240010Y-95804716D02*
X98240010Y-95776498D01*
X98690003Y-99937997D02*
X98690003Y-96254709D01*
X98552000Y-108712000D02*
X98690003Y-103378000D01*
X98552000Y-103378000D02*
X98690003Y-103378000D01*
X98806000Y-108966000D02*
X98552000Y-108712000D01*
X100071200Y-108966000D02*
X99314000Y-108966000D01*
X99314000Y-108966000D02*
X98806000Y-108966000D01*
X101168200Y-110063000D02*
X100071200Y-108966000D01*
X76200000Y-92710000D02*
X78232000Y-90678000D01*
X78232000Y-90678000D02*
X93141512Y-90678000D01*
X101168200Y-110363000D02*
X101168200Y-110063000D01*
X101600000Y-112953800D02*
X101600000Y-110794800D01*
X101600000Y-110794800D02*
X101168200Y-110363000D01*
X97790000Y-108712000D02*
X98298000Y-109220000D01*
X98298000Y-109220000D02*
X98298000Y-110002800D01*
X97790000Y-103378000D02*
X97790000Y-108712000D01*
X97790000Y-95962898D02*
X97790000Y-99822000D01*
X80264000Y-91186000D02*
X93013102Y-91186000D01*
X93013102Y-91186000D02*
X97790000Y-95962898D01*
X78740000Y-92710000D02*
X80264000Y-91186000D01*
X99258200Y-110363000D02*
X98658200Y-110363000D01*
X98658200Y-110363000D02*
X98298000Y-110002800D01*
X99060000Y-112953800D02*
X99060000Y-110561200D01*
X99060000Y-110561200D02*
X99258200Y-110363000D01*
X87630000Y-106934000D02*
X87884000Y-106934000D01*
X90424000Y-107188000D02*
X90424000Y-108712000D01*
X95250000Y-120904000D02*
X95250000Y-122682000D01*
X87884000Y-106934000D02*
X88138000Y-106680000D01*
X88138000Y-106680000D02*
X89916000Y-106680000D01*
X93726000Y-120396000D02*
X94742000Y-120396000D01*
X95250000Y-122682000D02*
X94742000Y-123190000D01*
X89916000Y-106680000D02*
X90424000Y-107188000D01*
X94742000Y-120396000D02*
X95250000Y-120904000D01*
X90424000Y-108712000D02*
X87884000Y-111252000D01*
X87884000Y-111252000D02*
X87884000Y-117856000D01*
X87884000Y-117856000D02*
X91186000Y-117856000D01*
X89070000Y-123190000D02*
X88900000Y-123020000D01*
X88900000Y-123020000D02*
X88900000Y-121920000D01*
X91186000Y-117856000D02*
X93726000Y-120396000D01*
X94742000Y-123190000D02*
X89070000Y-123190000D01*
X86868000Y-94742000D02*
X86861937Y-99815937D01*
X86868000Y-99822000D02*
X86861937Y-99815937D01*
X94167000Y-96157400D02*
X89807400Y-96157400D01*
X89807400Y-96157400D02*
X86360000Y-92710000D01*
X92202000Y-106934000D02*
X92489264Y-106934000D01*
X92489264Y-106934000D02*
X92765864Y-106657400D01*
X92765864Y-106657400D02*
X93417000Y-106657400D01*
X93417000Y-106657400D02*
X94167000Y-106657400D01*
X87376000Y-105410000D02*
X92202000Y-105410000D01*
X87122000Y-105156000D02*
X87376000Y-105410000D01*
X86360000Y-104394000D02*
X87122000Y-105156000D01*
X81280000Y-97028000D02*
X84328000Y-100076000D01*
X81280000Y-92710000D02*
X81280000Y-97028000D01*
X87884000Y-103124000D02*
X88417400Y-103657400D01*
X88417400Y-103657400D02*
X94167000Y-103657400D01*
X79248000Y-100838000D02*
X85598000Y-100838000D01*
X71120000Y-92710000D02*
X79248000Y-100838000D01*
X87122000Y-103886000D02*
X87893400Y-104657400D01*
X87893400Y-104657400D02*
X94167000Y-104657400D01*
X77470000Y-101600000D02*
X84836000Y-101600000D01*
X68580000Y-92710000D02*
X77470000Y-101600000D01*
X88900000Y-88900000D02*
X88900000Y-87697919D01*
X88900000Y-87697919D02*
X88578081Y-87376000D01*
X88578081Y-87376000D02*
X75946000Y-87376000D01*
X75946000Y-87376000D02*
X72390000Y-90932000D01*
X72390000Y-90932000D02*
X67818000Y-90932000D01*
X67818000Y-90932000D02*
X66040000Y-92710000D01*
X88900000Y-89408000D02*
X88900000Y-88900000D01*
X72136000Y-90170000D02*
X75438000Y-86868000D01*
X91440000Y-88900000D02*
X89408000Y-86868000D01*
X89408000Y-86868000D02*
X75438000Y-86868000D01*
X71882000Y-90170000D02*
X72136000Y-90170000D01*
X71628000Y-90170000D02*
X71882000Y-90170000D01*
X66040000Y-90170000D02*
X71628000Y-90170000D01*
X63500000Y-92710000D02*
X66040000Y-90170000D01*
X91440000Y-88646000D02*
X91440000Y-88900000D01*
X101667000Y-106657400D02*
X103493128Y-106657400D01*
X103493128Y-106657400D02*
X106744205Y-109908477D01*
X106744205Y-109908477D02*
X106744205Y-112965795D01*
X106744205Y-112965795D02*
X108332410Y-114554000D01*
X108332410Y-114554000D02*
X115570000Y-114554000D01*
X117060000Y-113064000D02*
X117060000Y-113030000D01*
X115570000Y-114554000D02*
X117060000Y-113064000D01*
X118364000Y-110744000D02*
X118364000Y-112726000D01*
X118060000Y-113030000D02*
X117060000Y-113030000D01*
X118364000Y-112726000D02*
X118060000Y-113030000D01*
X101667000Y-107157400D02*
X103356718Y-107157400D01*
X103356718Y-107157400D02*
X106172000Y-109972682D01*
X106172000Y-109972682D02*
X106172000Y-113030000D01*
X118664000Y-108844000D02*
X118364000Y-108844000D01*
X106172000Y-113030000D02*
X108146009Y-115004009D01*
X119634000Y-112541002D02*
X119634000Y-109814000D01*
X108146009Y-115004009D02*
X117170993Y-115004009D01*
X119634000Y-109814000D02*
X118664000Y-108844000D01*
X117170993Y-115004009D02*
X119634000Y-112541002D01*
X115790000Y-110490000D02*
X117436000Y-108844000D01*
X117436000Y-108844000D02*
X118364000Y-108844000D01*
D34*
X120396000Y-116078000D02*
X121412000Y-117094000D01*
X112776000Y-116078000D02*
X120396000Y-116078000D01*
X112014000Y-116078000D02*
X112776000Y-116078000D01*
X129286000Y-122174000D02*
X137160000Y-114300000D01*
X137160000Y-114300000D02*
X139700000Y-114300000D01*
X122936000Y-122174000D02*
X129286000Y-122174000D01*
X121412000Y-120650000D02*
X122936000Y-122174000D01*
X121412000Y-117094000D02*
X121412000Y-120650000D01*
X111980000Y-113030000D02*
X111980000Y-111760000D01*
X111980000Y-111760000D02*
X113250000Y-110490000D01*
D32*
X109474000Y-107950000D02*
X109474000Y-112996000D01*
X109474000Y-112996000D02*
X109440000Y-113030000D01*
X105410000Y-106680000D02*
X108504000Y-106680000D01*
X108504000Y-106680000D02*
X109474000Y-107650000D01*
X109474000Y-107650000D02*
X109474000Y-107950000D01*
X104387400Y-105657400D02*
X105410000Y-106680000D01*
X101667000Y-105657400D02*
X104387400Y-105657400D01*
X107574000Y-107950000D02*
X107574000Y-109894000D01*
X107574000Y-109894000D02*
X108170000Y-110490000D01*
X103871400Y-106157400D02*
X105664000Y-107950000D01*
X105664000Y-107950000D02*
X107574000Y-107950000D01*
X101667000Y-106157400D02*
X103871400Y-106157400D01*
X134840000Y-113030000D02*
X134840000Y-111870000D01*
X134840000Y-111870000D02*
X135844000Y-110866000D01*
X135844000Y-110866000D02*
X136144000Y-110866000D01*
X101667000Y-104657400D02*
X102417000Y-104657400D01*
X134840000Y-114030000D02*
X134840000Y-113030000D01*
X102417000Y-104657400D02*
X102466990Y-104707390D01*
X106172000Y-105156000D02*
X118364000Y-105156000D01*
X102466990Y-104707390D02*
X105723390Y-104707390D01*
X123190000Y-115316000D02*
X123444000Y-115570000D01*
X105723390Y-104707390D02*
X106172000Y-105156000D01*
X123190000Y-109982000D02*
X123190000Y-115316000D01*
X118364000Y-105156000D02*
X123190000Y-109982000D01*
X123444000Y-115570000D02*
X133300000Y-115570000D01*
X133300000Y-115570000D02*
X134840000Y-114030000D01*
X136144000Y-108966000D02*
X135094000Y-108966000D01*
X135094000Y-108966000D02*
X133570000Y-110490000D01*
X101667000Y-105157400D02*
X105157400Y-105157400D01*
X118110000Y-105918000D02*
X122428000Y-110236000D01*
X122428000Y-110236000D02*
X122428000Y-115570000D01*
X105157400Y-105157400D02*
X105918000Y-105918000D01*
X137414000Y-112541002D02*
X137414000Y-109936000D01*
X105918000Y-105918000D02*
X118110000Y-105918000D01*
X122428000Y-115570000D02*
X123190000Y-116332000D01*
X137414000Y-109936000D02*
X136444000Y-108966000D01*
X123190000Y-116332000D02*
X133623002Y-116332000D01*
X133623002Y-116332000D02*
X137414000Y-112541002D01*
X136444000Y-108966000D02*
X136144000Y-108966000D01*
D34*
X131030000Y-110490000D02*
X131030000Y-110270000D01*
X131030000Y-110270000D02*
X134620000Y-106680000D01*
X129760000Y-113030000D02*
X129760000Y-111760000D01*
X129760000Y-111760000D02*
X131030000Y-110490000D01*
D32*
X124714000Y-114554000D02*
X125696000Y-114554000D01*
X125696000Y-114554000D02*
X127220000Y-113030000D01*
X121640600Y-103657400D02*
X127220000Y-109236800D01*
X127220000Y-109236800D02*
X127220000Y-113030000D01*
X101667000Y-103657400D02*
X121640600Y-103657400D01*
X125950000Y-111032000D02*
X125736000Y-111032000D01*
X125736000Y-111032000D02*
X124714000Y-112054000D01*
X124714000Y-112054000D02*
X124714000Y-112654000D01*
X125950000Y-110490000D02*
X125950000Y-111032000D01*
X101667000Y-104157400D02*
X119617400Y-104157400D01*
X119617400Y-104157400D02*
X125950000Y-110490000D01*
X124714000Y-99822000D02*
X125014000Y-99822000D01*
X125014000Y-99822000D02*
X125950000Y-98886000D01*
X125950000Y-98886000D02*
X125950000Y-98790000D01*
X125950000Y-98790000D02*
X125950000Y-97790000D01*
X101667000Y-102657400D02*
X121578600Y-102657400D01*
X121578600Y-102657400D02*
X124414000Y-99822000D01*
X124414000Y-99822000D02*
X124714000Y-99822000D01*
X124714000Y-101722000D02*
X125828000Y-101722000D01*
X125828000Y-101722000D02*
X127220000Y-100330000D01*
X121886600Y-103157400D02*
X123322000Y-101722000D01*
X123322000Y-101722000D02*
X124714000Y-101722000D01*
X101667000Y-103157400D02*
X121886600Y-103157400D01*
X135636000Y-96266000D02*
X136144000Y-96266000D01*
X133570000Y-97790000D02*
X135094000Y-96266000D01*
X135094000Y-96266000D02*
X135636000Y-96266000D01*
X101667000Y-98157400D02*
X104889810Y-98157400D01*
X122993990Y-99764010D02*
X122993990Y-97095600D01*
X129794000Y-96774000D02*
X129794000Y-98552000D01*
X104889810Y-98157400D02*
X106172000Y-99439590D01*
X106172000Y-99439590D02*
X106172000Y-101471590D01*
X129794000Y-98552000D02*
X130556000Y-99314000D01*
X106172000Y-101471590D02*
X106300410Y-101600000D01*
X122993990Y-97095600D02*
X124331590Y-95758000D01*
X106300410Y-101600000D02*
X121158000Y-101600000D01*
X121158000Y-101600000D02*
X122993990Y-99764010D01*
X130556000Y-99314000D02*
X131572000Y-99314000D01*
X124331590Y-95758000D02*
X128778000Y-95758000D01*
X128778000Y-95758000D02*
X129794000Y-96774000D01*
X131572000Y-99314000D02*
X132346001Y-98539999D01*
X132346001Y-98539999D02*
X132820001Y-98539999D01*
X132820001Y-98539999D02*
X133570000Y-97790000D01*
X134840000Y-100330000D02*
X136144000Y-99026000D01*
X136144000Y-99026000D02*
X136144000Y-98166000D01*
X101667000Y-98657400D02*
X104753400Y-98657400D01*
X124460000Y-96266000D02*
X127254000Y-96266000D01*
X129286000Y-101854000D02*
X133316000Y-101854000D01*
X104753400Y-98657400D02*
X105664000Y-99568000D01*
X105664000Y-99568000D02*
X105664000Y-101600000D01*
X121412000Y-102108000D02*
X123444000Y-100076000D01*
X105664000Y-101600000D02*
X106172000Y-102108000D01*
X106172000Y-102108000D02*
X121412000Y-102108000D01*
X127254000Y-98298000D02*
X128524000Y-99568000D01*
X123444000Y-100076000D02*
X123444000Y-97282000D01*
X128524000Y-101092000D02*
X129286000Y-101854000D01*
X123444000Y-97282000D02*
X124460000Y-96266000D01*
X127254000Y-96266000D02*
X127254000Y-98298000D01*
X128524000Y-99568000D02*
X128524000Y-101092000D01*
X133316000Y-101854000D02*
X134840000Y-100330000D01*
X100838000Y-88900000D02*
X100838000Y-91308000D01*
X100838000Y-91308000D02*
X100970000Y-91440000D01*
X101667000Y-95157400D02*
X102417000Y-95157400D01*
X102417000Y-95157400D02*
X102870000Y-94704400D01*
X102870000Y-94704400D02*
X102870000Y-93218000D01*
X102870000Y-93218000D02*
X101092000Y-91440000D01*
X101092000Y-91440000D02*
X100970000Y-91440000D01*
X102870000Y-91440000D02*
X102870000Y-89408000D01*
X102870000Y-89408000D02*
X103378000Y-88900000D01*
X101667000Y-95657400D02*
X102261400Y-95657400D01*
X102261400Y-95657400D02*
X102311390Y-95707390D01*
X102870000Y-91740000D02*
X102870000Y-91440000D01*
X102311390Y-95707390D02*
X102666610Y-95707390D01*
X102666610Y-95707390D02*
X103632000Y-94742000D01*
X103632000Y-94742000D02*
X103632000Y-92502000D01*
X103632000Y-92502000D02*
X102870000Y-91740000D01*
X108170000Y-97790000D02*
X108170000Y-96790000D01*
X108170000Y-96790000D02*
X109456000Y-95504000D01*
X109456000Y-95504000D02*
X109768000Y-95504000D01*
X109768000Y-95504000D02*
X110368000Y-95504000D01*
X101667000Y-97157400D02*
X102237400Y-97157400D01*
X102237400Y-97157400D02*
X102287390Y-97207390D01*
X102287390Y-97207390D02*
X106587390Y-97207390D01*
X107170000Y-97790000D02*
X108170000Y-97790000D01*
X106587390Y-97207390D02*
X107170000Y-97790000D01*
X112014000Y-98298000D02*
X110731999Y-99580001D01*
X110731999Y-99580001D02*
X110189999Y-99580001D01*
X110189999Y-99580001D02*
X109440000Y-100330000D01*
X112014000Y-96058000D02*
X112014000Y-98298000D01*
X112268000Y-95504000D02*
X112268000Y-95804000D01*
X112268000Y-95804000D02*
X112014000Y-96058000D01*
X105277400Y-97657400D02*
X107950000Y-100330000D01*
X107950000Y-100330000D02*
X109440000Y-100330000D01*
X101667000Y-97657400D02*
X105277400Y-97657400D01*
D34*
X138684000Y-95758000D02*
X138938000Y-95758000D01*
X138938000Y-95758000D02*
X139700000Y-96520000D01*
X137922000Y-94996000D02*
X138684000Y-95758000D01*
X115570000Y-94996000D02*
X137922000Y-94996000D01*
X111980000Y-100330000D02*
X113250000Y-99060000D01*
X113250000Y-99060000D02*
X113250000Y-97790000D01*
D32*
X115790000Y-97790000D02*
X117060000Y-96520000D01*
X117060000Y-96520000D02*
X118364000Y-96520000D01*
X101667000Y-96157400D02*
X106026600Y-96157400D01*
X106026600Y-96157400D02*
X108712000Y-93472000D01*
X108712000Y-93472000D02*
X112776000Y-93472000D01*
X112776000Y-93472000D02*
X115790000Y-96486000D01*
X115790000Y-96486000D02*
X115790000Y-97790000D01*
X118364000Y-98420000D02*
X118364000Y-99026000D01*
X118364000Y-99026000D02*
X117060000Y-100330000D01*
X114554000Y-98552000D02*
X115582001Y-99580001D01*
X115582001Y-99580001D02*
X116310001Y-99580001D01*
X116310001Y-99580001D02*
X117060000Y-100330000D01*
X114554000Y-96204998D02*
X114554000Y-98552000D01*
X108864400Y-94234000D02*
X112583002Y-94234000D01*
X112583002Y-94234000D02*
X114554000Y-96204998D01*
X106441000Y-96657400D02*
X108864400Y-94234000D01*
X101667000Y-96657400D02*
X106441000Y-96657400D01*
M02*
