G04 #@! TF.FileFunction,Paste,Top*
%FSLAX46Y46*%
G04 Gerber Fmt 4.6, Leading zero omitted, Abs format (unit mm)*
G04 Created by KiCad (PCBNEW 4.0.6-e0-6349~53~ubuntu16.04.1) date Sat Apr 29 18:22:20 2017*
%MOMM*%
%LPD*%
G01*
G04 APERTURE LIST*
%ADD10C,0.100000*%
%ADD11R,1.600000X1.000000*%
%ADD12R,1.250000X1.000000*%
%ADD13R,1.524000X0.508000*%
%ADD14R,0.700000X1.300000*%
%ADD15R,1.300000X0.700000*%
%ADD16R,3.800000X2.000000*%
%ADD17R,1.500000X2.000000*%
%ADD18R,1.100000X0.140000*%
G04 APERTURE END LIST*
D10*
D11*
X67564000Y-113816000D03*
X67564000Y-116816000D03*
X78232000Y-116562000D03*
X78232000Y-113562000D03*
D12*
X92049600Y-101161600D03*
X92049600Y-99161600D03*
X103657400Y-99600000D03*
X103657400Y-101600000D03*
D10*
G36*
X71755000Y-116459000D02*
X71755000Y-114173000D01*
X73279000Y-114935000D01*
X73279000Y-115697000D01*
X71755000Y-116459000D01*
X71755000Y-116459000D01*
G37*
G36*
X70993000Y-114173000D02*
X70993000Y-116459000D01*
X69469000Y-115697000D01*
X69469000Y-114935000D01*
X70993000Y-114173000D01*
X70993000Y-114173000D01*
G37*
D13*
X71374000Y-115316000D03*
D14*
X93578600Y-110286800D03*
X95478600Y-110286800D03*
X103068200Y-110363000D03*
X101168200Y-110363000D03*
X97358200Y-110363000D03*
X99258200Y-110363000D03*
D15*
X118364000Y-108844000D03*
X118364000Y-110744000D03*
D14*
X107574000Y-107950000D03*
X109474000Y-107950000D03*
D15*
X136144000Y-108966000D03*
X136144000Y-110866000D03*
X124714000Y-112654000D03*
X124714000Y-114554000D03*
D14*
X102870000Y-91440000D03*
X100970000Y-91440000D03*
D15*
X124714000Y-101722000D03*
X124714000Y-99822000D03*
X136144000Y-98166000D03*
X136144000Y-96266000D03*
D14*
X112268000Y-95504000D03*
X110368000Y-95504000D03*
D15*
X118364000Y-98420000D03*
X118364000Y-96520000D03*
D16*
X72644000Y-118466000D03*
D17*
X72644000Y-112166000D03*
X70344000Y-112166000D03*
X74944000Y-112166000D03*
D18*
X94167000Y-93657400D03*
X94167000Y-94157400D03*
X94167000Y-94657400D03*
X94167000Y-95157400D03*
X94167000Y-95657400D03*
X94167000Y-96157400D03*
X94167000Y-96657400D03*
X94167000Y-97157400D03*
X94167000Y-97657400D03*
X94167000Y-98157400D03*
X94167000Y-98657400D03*
X94167000Y-99157400D03*
X94167000Y-99657400D03*
X94167000Y-100157400D03*
X94167000Y-100657400D03*
X94167000Y-101157400D03*
X94167000Y-101657400D03*
X94167000Y-102157400D03*
X94167000Y-102657400D03*
X94167000Y-103157400D03*
X94167000Y-103657400D03*
X94167000Y-104157400D03*
X94167000Y-104657400D03*
X94167000Y-105157400D03*
X94167000Y-105657400D03*
X94167000Y-106157400D03*
X94167000Y-106657400D03*
X94167000Y-107157400D03*
X101667000Y-107157400D03*
X101667000Y-106657400D03*
X101667000Y-106157400D03*
X101667000Y-105657400D03*
X101667000Y-105157400D03*
X101667000Y-104657400D03*
X101667000Y-104157400D03*
X101667000Y-103657400D03*
X101667000Y-103157400D03*
X101667000Y-102657400D03*
X101667000Y-102157400D03*
X101667000Y-101657400D03*
X101667000Y-101157400D03*
X101667000Y-100657400D03*
X101667000Y-100157400D03*
X101667000Y-99657400D03*
X101667000Y-99157400D03*
X101667000Y-98657400D03*
X101667000Y-98157400D03*
X101667000Y-97657400D03*
X101667000Y-97157400D03*
X101667000Y-96657400D03*
X101667000Y-96157400D03*
X101667000Y-95657400D03*
X101667000Y-95157400D03*
X101667000Y-94657400D03*
X101667000Y-94157400D03*
X101667000Y-93657400D03*
M02*
